<?xml version="1.0" encoding="UTF-8"?>
<svg version="1.1" xmlns="http://www.w3.org/2000/svg" width="500" height="500">
<path d="M0 0 C0.85385477 -0.0045988 1.70770954 -0.00919759 2.5874387 -0.01393574 C3.52584343 -0.00879218 4.46424816 -0.00364862 5.4310894 0.00165081 C6.42777291 -0.00076361 7.42445642 -0.00317802 8.45134246 -0.0056656 C11.80687028 -0.01132246 15.1622094 -0.00262426 18.51772881 0.00596905 C20.91733159 0.00489662 23.31693411 0.00295852 25.71653557 0.00021648 C31.56859285 -0.00413749 37.42059886 0.00082267 43.27264638 0.01006678 C50.09031724 0.02044876 56.90797588 0.0203806 63.72565316 0.01989421 C75.89610304 0.01939328 88.06652668 0.02856121 100.23696709 0.04307842 C112.03807873 0.05714777 123.83916725 0.06425 135.6402874 0.06358624 C136.36622452 0.06354628 137.09216163 0.06350632 137.84009685 0.06346516 C138.92714132 0.06340462 138.92714132 0.06340462 140.03614628 0.06334287 C153.47533265 0.06265189 166.91450921 0.06855204 180.35369239 0.07749609 C185.10141681 0.08050659 189.84913943 0.08157498 194.5968647 0.08202839 C200.99735149 0.08278421 207.39781885 0.08915447 213.79829788 0.09919453 C216.1456271 0.1021102 218.49295911 0.10334679 220.84029007 0.10276699 C224.04904887 0.10227445 227.25774039 0.10795027 230.46648979 0.1151762 C231.85402039 0.1128533 231.85402039 0.1128533 233.26958191 0.11048347 C238.18125229 0.12869784 242.95733727 0.3924674 247.82859504 1.03483981 C249.86880959 1.25306793 251.84190868 1.28368014 253.89224052 1.24888897 C258.38554303 1.19282281 262.84607176 1.42127629 267.32974052 1.68638897 C268.04911797 1.72570538 268.76849541 1.76502178 269.50967216 1.80552959 C274.71020808 2.12935652 274.71020808 2.12935652 275.82974052 3.24888897 C277.83496957 3.24888897 279.8402909 3.2464309 281.84536552 3.22154522 C284.0006284 3.25124372 285.76388053 3.64912316 287.82974052 4.24888897 C290.16221813 4.58815844 292.49559524 4.92128963 294.82974052 5.24888897 C296.49640719 5.5822223 298.16307386 5.91555564 299.82974052 6.24888897 C301.43849052 6.43451397 301.43849052 6.43451397 303.07974052 6.62388897 C306.79892386 7.24375286 310.07707233 8.24891541 313.62270927 9.48717022 C317.95348347 10.9818622 322.37600735 12.17999301 326.82974052 13.24888897 C326.82974052 13.90888897 326.82974052 14.56888897 326.82974052 15.24888897 C328.31474052 14.75388897 328.31474052 14.75388897 329.82974052 14.24888897 C332.51724052 15.18638897 332.51724052 15.18638897 334.82974052 16.24888897 C334.82974052 16.90888897 334.82974052 17.56888897 334.82974052 18.24888897 C335.81974052 17.91888897 336.80974052 17.58888897 337.82974052 17.24888897 C337.82974052 17.90888897 337.82974052 18.56888897 337.82974052 19.24888897 C339.14974052 19.24888897 340.46974052 19.24888897 341.82974052 19.24888897 C341.82974052 19.90888897 341.82974052 20.56888897 341.82974052 21.24888897 C342.81974052 20.91888897 343.80974052 20.58888897 344.82974052 20.24888897 C344.82974052 20.90888897 344.82974052 21.56888897 344.82974052 22.24888897 C345.51036552 22.35201397 346.19099052 22.45513897 346.89224052 22.56138897 C352.55779793 23.88737049 357.67273983 26.61308861 362.82974052 29.24888897 C363.61349052 29.64076397 364.39724052 30.03263897 365.20474052 30.43638897 C365.74099052 30.70451397 366.27724052 30.97263897 366.82974052 31.24888897 C366.82974052 31.90888897 366.82974052 32.56888897 366.82974052 33.24888897 C367.61349052 33.39326397 368.39724052 33.53763897 369.20474052 33.68638897 C371.82974052 34.24888897 371.82974052 34.24888897 373.82974052 35.24888897 C373.82974052 35.90888897 373.82974052 36.56888897 373.82974052 37.24888897 C374.81974052 37.24888897 375.80974052 37.24888897 376.82974052 37.24888897 C376.82974052 37.90888897 376.82974052 38.56888897 376.82974052 39.24888897 C378.80974052 39.90888897 380.78974052 40.56888897 382.82974052 41.24888897 C382.82974052 41.90888897 382.82974052 42.56888897 382.82974052 43.24888897 C383.69599052 43.43451397 383.69599052 43.43451397 384.57974052 43.62388897 C386.85309819 44.25537721 388.75509342 45.13747088 390.82974052 46.24888897 C390.82974052 46.90888897 390.82974052 47.56888897 390.82974052 48.24888897 C391.48974052 48.24888897 392.14974052 48.24888897 392.82974052 48.24888897 C392.82974052 48.90888897 392.82974052 49.56888897 392.82974052 50.24888897 C393.81974052 50.24888897 394.80974052 50.24888897 395.82974052 50.24888897 C397.20536907 51.53854073 398.53740445 52.8757819 399.82974052 54.24888897 C400.81974052 54.90888897 401.80974052 55.56888897 402.82974052 56.24888897 C402.82974052 56.90888897 402.82974052 57.56888897 402.82974052 58.24888897 C403.69599052 58.65107647 403.69599052 58.65107647 404.57974052 59.06138897 C406.88524095 60.27818086 408.85030245 61.55222776 410.82974052 63.24888897 C410.82974052 63.90888897 410.82974052 64.56888897 410.82974052 65.24888897 C411.42786552 65.51701397 412.02599052 65.78513897 412.64224052 66.06138897 C414.82821906 67.24806303 416.24306646 68.3448801 417.82974052 70.24888897 C417.82974052 70.90888897 417.82974052 71.56888897 417.82974052 72.24888897 C419.14974052 72.90888897 420.46974052 73.56888897 421.82974052 74.24888897 C421.82974052 74.90888897 421.82974052 75.56888897 421.82974052 76.24888897 C422.81974052 76.57888897 423.80974052 76.90888897 424.82974052 77.24888897 C426.47817802 79.13951397 426.47817802 79.13951397 428.20474052 81.49888897 C430.26371292 84.24855698 432.2741889 86.82118615 434.76724052 89.18638897 C435.44786552 89.86701397 436.12849052 90.54763897 436.82974052 91.24888897 C436.82974052 91.90888897 436.82974052 92.56888897 436.82974052 93.24888897 C437.48974052 93.24888897 438.14974052 93.24888897 438.82974052 93.24888897 C439.15974052 94.23888897 439.48974052 95.22888897 439.82974052 96.24888897 C440.34536552 96.76451397 440.86099052 97.28013897 441.39224052 97.81138897 C441.86661552 98.28576397 442.34099052 98.76013897 442.82974052 99.24888897 C442.82974052 99.90888897 442.82974052 100.56888897 442.82974052 101.24888897 C443.48974052 101.57888897 444.14974052 101.90888897 444.82974052 102.24888897 C447.9559858 104.72383315 448.74274891 107.48622569 449.82974052 111.24888897 C450.48974052 111.24888897 451.14974052 111.24888897 451.82974052 111.24888897 C451.82974052 112.23888897 451.82974052 113.22888897 451.82974052 114.24888897 C452.48974052 114.24888897 453.14974052 114.24888897 453.82974052 114.24888897 C453.82974052 115.23888897 453.82974052 116.22888897 453.82974052 117.24888897 C454.48974052 117.57888897 455.14974052 117.90888897 455.82974052 118.24888897 C456.16307386 119.5822223 456.49640719 120.91555564 456.82974052 122.24888897 C457.48974052 122.57888897 458.14974052 122.90888897 458.82974052 123.24888897 C459.15974052 124.23888897 459.48974052 125.22888897 459.82974052 126.24888897 C460.48974052 126.90888897 461.14974052 127.56888897 461.82974052 128.24888897 C462.52632416 129.9032751 463.19070935 131.57143215 463.82974052 133.24888897 C464.20099052 133.95013897 464.57224052 134.65138897 464.95474052 135.37388897 C465.82974052 137.24888897 465.82974052 137.24888897 465.82974052 140.24888897 C466.48974052 140.24888897 467.14974052 140.24888897 467.82974052 140.24888897 C468.95806409 142.78912545 470.0824748 145.33097735 471.20474052 147.87388897 C471.5218499 148.58674053 471.83895927 149.29959209 472.16567802 150.03404522 C473.93086226 154.04248443 475.67267425 158.01478931 476.82974052 162.24888897 C476.49974052 162.90888897 476.16974052 163.56888897 475.82974052 164.24888897 C476.48974052 164.24888897 477.14974052 164.24888897 477.82974052 164.24888897 C477.95349052 164.78513897 478.07724052 165.32138897 478.20474052 165.87388897 C478.81232615 168.29797474 478.81232615 168.29797474 479.70474052 170.81138897 C480.69656903 173.84197607 481.63223399 176.87321568 482.51724052 179.93638897 C482.78923271 180.86838116 483.0612249 181.80037334 483.34145927 182.76060772 C483.82974052 185.24888897 483.82974052 185.24888897 482.82974052 188.24888897 C483.48974052 188.24888897 484.14974052 188.24888897 484.82974052 188.24888897 C484.76786552 188.88826397 484.70599052 189.52763897 484.64224052 190.18638897 C484.82012216 193.09178909 485.36472008 195.03505213 486.32974052 197.74888897 C487.51795391 201.10253798 488.02870912 203.66745421 487.82974052 207.24888897 C488.14101268 208.91981642 488.47790688 210.58602939 488.82974052 212.24888897 C490.80149095 222.17048212 491.11202269 231.80249403 491.03555107 241.87291241 C491.01701577 244.40458804 491.01504396 246.93590177 491.0152874 249.46763897 C491.01038052 251.08482964 491.00455587 252.70201785 490.99770927 254.31920147 C490.99659645 255.07226574 490.99548363 255.82533001 490.99433708 256.60121441 C490.96560315 259.74752292 490.83208819 262.24184598 489.82974052 265.24888897 C489.62921169 267.20404508 489.46664299 269.16325006 489.32974052 271.12388897 C489.06323299 274.92162136 488.63832603 278.52939565 487.82974052 282.24888897 C487.67634209 283.06228741 487.52294365 283.87568584 487.36489677 284.71373272 C486.47385539 289.37513106 485.36304558 293.75119414 483.82974052 298.24888897 C483.48951266 300.24772766 483.15644955 302.24779619 482.82974052 304.24888897 C481.89224052 308.06138897 481.89224052 308.06138897 480.82974052 311.24888897 C480.16974052 311.57888897 479.50974052 311.90888897 478.82974052 312.24888897 C478.92255302 313.20795147 478.92255302 313.20795147 479.01724052 314.18638897 C478.35460677 325.00940698 472.16804857 336.43061288 467.82974052 346.24888897 C467.16974052 346.24888897 466.50974052 346.24888897 465.82974052 346.24888897 C465.70018974 347.53666241 465.70018974 347.53666241 465.56802177 348.85045147 C464.71428366 352.78035707 463.20987886 355.26374191 461.01724052 358.62388897 C457.96813499 363.37926852 455.23598354 368.13562257 452.82974052 373.24888897 C452.16974052 373.24888897 451.50974052 373.24888897 450.82974052 373.24888897 C450.75110771 373.79029522 450.6724749 374.33170147 450.59145927 374.88951397 C449.54610297 378.12743812 447.72032168 380.31165504 445.64224052 382.99888897 C444.82430334 384.06121281 444.00659573 385.12371344 443.18911552 386.18638897 C442.41052177 387.19701397 441.63192802 388.20763897 440.82974052 389.24888897 C439.21964491 391.46784426 437.6133571 393.68894779 436.02114677 395.92076397 C435.62798271 396.35904522 435.23481865 396.79732647 434.82974052 397.24888897 C434.16974052 397.24888897 433.50974052 397.24888897 432.82974052 397.24888897 C432.48942802 398.33170147 432.48942802 398.33170147 432.14224052 399.43638897 C430.56054335 402.82574006 428.62859551 404.79135776 425.82974052 407.24888897 C424.83974052 407.57888897 423.84974052 407.90888897 422.82974052 408.24888897 C421.62091956 410.24905363 421.62091956 410.24905363 420.82974052 412.24888897 C420.16974052 412.24888897 419.50974052 412.24888897 418.82974052 412.24888897 C418.52036552 413.08420147 418.52036552 413.08420147 418.20474052 413.93638897 C416.3184442 417.10879642 413.67489248 418.92631595 410.82974052 421.24888897 C410.27286552 421.99138897 409.71599052 422.73388897 409.14224052 423.49888897 C407.82974052 425.24888897 407.82974052 425.24888897 404.82974052 426.24888897 C404.16974052 427.23888897 403.50974052 428.22888897 402.82974052 429.24888897 C402.16974052 429.24888897 401.50974052 429.24888897 400.82974052 429.24888897 C400.82974052 429.90888897 400.82974052 430.56888897 400.82974052 431.24888897 C399.50974052 431.57888897 398.18974052 431.90888897 396.82974052 432.24888897 C396.82974052 432.90888897 396.82974052 433.56888897 396.82974052 434.24888897 C395.36880302 435.53795147 395.36880302 435.53795147 393.45474052 436.87388897 C392.82825615 437.31990459 392.20177177 437.76592022 391.55630302 438.22545147 C389.82974052 439.24888897 389.82974052 439.24888897 387.82974052 439.24888897 C387.49974052 439.90888897 387.16974052 440.56888897 386.82974052 441.24888897 C382.32974052 444.24888897 382.32974052 444.24888897 379.82974052 444.24888897 C379.82974052 444.90888897 379.82974052 445.56888897 379.82974052 446.24888897 C379.1052874 446.63560772 378.38083427 447.02232647 377.63442802 447.42076397 C371.33337848 450.7765206 371.33337848 450.7765206 365.32974052 454.62388897 C362.82974052 456.24888897 362.82974052 456.24888897 359.82974052 456.24888897 C359.49974052 456.90888897 359.16974052 457.56888897 358.82974052 458.24888897 C357.17375911 459.10452787 355.47842481 459.884808 353.76724052 460.62388897 C350.35625448 462.12032156 347.00214302 463.64191998 343.70474052 465.37388897 C339.61007226 467.44660328 335.32121478 469.25181896 330.82974052 470.24888897 C330.16974052 469.91888897 329.50974052 469.58888897 328.82974052 469.24888897 C328.82974052 469.90888897 328.82974052 470.56888897 328.82974052 471.24888897 C315.14974052 475.92888897 315.14974052 475.92888897 309.20474052 476.74888897 C306.34914399 477.17194031 304.33986997 477.75438742 301.70474052 478.81138897 C298.55155236 480.07266423 296.2415081 480.33867233 292.82974052 480.24888897 C291.86036552 480.57888897 290.89099052 480.90888897 289.89224052 481.24888897 C286.6845313 482.29630423 284.17567173 482.32670132 280.82974052 482.24888897 C280.49974052 482.57888897 280.16974052 482.90888897 279.82974052 483.24888897 C276.46152027 483.32132381 273.1043066 483.24496838 269.73599052 483.18638897 C266.93667679 482.91137262 266.93667679 482.91137262 265.82974052 484.24888897 C264.38751196 484.32356747 262.94172083 484.3321433 261.49770927 484.31138897 C260.61663506 484.30365459 259.73556084 484.29592022 258.8277874 484.28795147 C256.96580596 484.26207264 255.10382675 484.23603304 253.2418499 484.20982647 C252.35690849 484.20209209 251.47196709 484.19435772 250.56020927 484.18638897 C249.74963066 484.17478741 248.93905205 484.16318584 248.10391045 484.15123272 C245.86936536 484.16689491 245.86936536 484.16689491 243.92764091 484.7466917 C241.09705178 485.42428065 238.44165943 485.36026595 235.53286552 485.34654522 C234.32759209 485.34332256 233.12231865 485.34009991 231.88052177 485.33677959 C230.62626396 485.32840069 229.37200615 485.32002178 228.07974052 485.31138897 C226.81001396 485.30687725 225.5402874 485.30236553 224.23208427 485.29771709 C221.09792216 485.28593453 217.96385511 485.26948313 214.82974052 485.24888897 C212.59105109 480.80109676 212.61887901 476.71003147 212.73501396 471.84923077 C212.75544234 470.12427008 212.77353813 468.39928055 212.78957939 466.67427349 C212.79902077 465.77756813 212.80846214 464.88086277 212.81818962 463.95698452 C212.83683979 459.58447381 212.7287941 455.21670979 212.61977959 450.8458128 C211.59118758 406.41167987 211.60847975 361.9719417 211.59091234 317.52802742 C211.58614592 305.674099 211.56838454 293.82028215 211.53984523 281.96638745 C211.51829536 272.68970213 211.50814647 263.41304863 211.5068047 254.13633853 C211.5057593 248.63564498 211.49989745 243.13505945 211.48198509 237.63439274 C211.46560383 232.51276277 211.46329976 227.39132388 211.4721241 222.26967716 C211.47289765 220.39225535 211.46851023 218.51482349 211.45866585 216.63742733 C211.44605176 214.08386969 211.45176274 211.53100206 211.46224785 208.97745037 C211.45419144 208.23063415 211.44613504 207.48381792 211.4378345 206.71437091 C211.46565828 203.83460218 211.50851707 201.75027464 213.0857687 199.2884016 C215.25139876 197.99755517 216.5828883 197.87892483 219.10078239 197.88812542 C220.40695518 197.88193943 220.40695518 197.88193943 221.7395153 197.87562847 C222.69185555 197.8864143 223.64419579 197.89720013 224.62539482 197.9083128 C226.13297859 197.90765568 226.13297859 197.90765568 227.6710186 197.90698528 C230.99886191 197.90907822 234.32620378 197.93243347 237.65395927 197.95592022 C239.95895424 197.96151437 242.26395276 197.96578532 244.56895256 197.96878338 C250.64027541 197.98024636 256.71138348 198.00972623 262.78262138 198.04289532 C270.06465275 198.07895558 277.34675587 198.09275041 284.62885094 198.11025524 C295.69596358 198.13936249 306.76260483 198.19684008 317.82974052 198.24888897 C317.82974052 177.78888897 317.82974052 157.32888897 317.82974052 136.24888897 C283.62109675 136.35466225 249.41247091 136.4637516 215.20386157 136.58000591 C211.15158306 136.59377304 207.09930441 136.6075005 203.04702568 136.62120342 C201.83708496 136.62529588 201.83708496 136.62529588 200.60270099 136.62947101 C187.5966888 136.67336778 174.59066851 136.71406203 161.58464225 136.75354158 C148.20741764 136.79422036 134.83020785 136.83841297 121.45300519 136.88576752 C113.21987932 136.91480458 104.98675412 136.94120456 96.75360875 136.96406794 C91.0832575 136.98007891 85.41292422 136.99954827 79.74259312 137.02155738 C76.4867942 137.03409806 73.23100976 137.04476884 69.97519493 137.05230808 C55.2300416 137.08746081 40.52473477 137.36315335 25.79298782 138.00683975 C-1.98236672 139.20166989 -1.98236672 139.20166989 -5.27348614 136.56194019 C-7.59943454 133.72552442 -7.67067975 132.39848664 -7.67146492 128.77009869 C-7.68129906 127.65682201 -7.69113319 126.54354534 -7.70126534 125.39653301 C-7.69159737 124.17975872 -7.6819294 122.96298443 -7.67196846 121.70933819 C-7.67737144 120.42449535 -7.68277443 119.13965252 -7.68834114 117.81587505 C-7.70229919 114.29525688 -7.69112529 110.77512718 -7.67462993 107.25453615 C-7.66078144 103.57191456 -7.66723904 99.88932138 -7.67076302 96.20668316 C-7.67346463 90.02454532 -7.65999155 83.8426017 -7.63681221 77.66051006 C-7.61017912 70.50764436 -7.60846292 63.35510291 -7.62020057 56.20220459 C-7.63096794 49.3250655 -7.62480106 42.448044 -7.61064529 35.57091427 C-7.60487876 32.64189794 -7.60497331 29.71296747 -7.60971069 26.78394985 C-7.6153556 22.69900278 -7.59619218 18.61454294 -7.57431221 14.52965069 C-7.57881386 13.30882793 -7.58331551 12.08800518 -7.58795357 10.8301878 C-7.57804893 9.72255077 -7.5681443 8.61491375 -7.55793953 7.47371197 C-7.55550963 6.50733744 -7.55307974 5.54096291 -7.55057621 4.5453043 C-7.42507169 3.78748724 -7.29956717 3.02967018 -7.17025948 2.24888897 C-4.08924958 0.19488237 -3.47381147 -0.00102284 0 0 Z M33.82974052 39.24888897 C33.67613138 46.92415406 33.52794966 54.59950742 33.38677692 62.27501106 C33.3210588 65.83870923 33.25344198 69.40235065 33.18154716 72.96592999 C33.09905487 77.05885531 33.02471096 81.15189276 32.95083427 85.24498272 C32.92379921 86.53037441 32.89676414 87.81576611 32.86890984 89.14010906 C32.84881355 90.3212579 32.82871727 91.50240673 32.80801201 92.71934795 C32.7880265 93.765256 32.768041 94.81116405 32.74744987 95.88876629 C32.55964164 98.20613594 32.55964164 98.20613594 33.82974052 99.24888897 C35.2335906 99.40590086 36.64488971 99.49713306 38.05605984 99.56074619 C38.95746242 99.60205382 39.858865 99.64336146 40.78758281 99.68592083 C41.77760219 99.72465656 42.76762156 99.76339228 43.78764153 99.80330181 C44.82014819 99.84542919 45.85265486 99.88755657 46.91644961 99.93096054 C58.77816851 100.37625661 70.63488151 100.38938885 82.50332451 100.3782835 C84.98318825 100.37964261 87.46305179 100.38142538 89.94291496 100.38359356 C95.91621976 100.38764002 101.88950702 100.38710375 107.86281108 100.38418092 C112.7229186 100.3819031 117.5830226 100.38162454 122.44313049 100.38270473 C123.14033641 100.38285797 123.83754233 100.3830112 124.55587571 100.38316908 C125.97306672 100.38348886 127.39025774 100.38381308 128.80744875 100.38414167 C142.02369682 100.3869775 155.23993789 100.38373864 168.45618481 100.3783413 C179.75933642 100.37386806 191.06247777 100.37465717 202.3656292 100.37926006 C215.55221175 100.38462756 228.73878822 100.38671022 241.92537171 100.3836478 C243.33460144 100.38332931 244.74383118 100.38301493 246.15306091 100.38270473 C247.19263276 100.38247332 247.19263276 100.38247332 248.25320606 100.38223723 C253.10257095 100.38137911 257.95193194 100.38281952 262.80129623 100.38518429 C269.33913609 100.38830302 275.8769597 100.38604135 282.41479874 100.38029003 C284.80274486 100.37897626 287.19069262 100.37933283 289.57863808 100.3815527 C300.91723368 100.39111587 312.19308793 100.34067099 323.50277615 99.47605991 C329.21320706 99.08614171 334.92096458 99.10363667 340.64224052 99.12388897 C341.78499443 99.12002178 342.92774834 99.11615459 344.10513115 99.11217022 C345.74191826 99.11410381 345.74191826 99.11410381 347.41177177 99.11607647 C348.86933891 99.11776836 348.86933891 99.11776836 350.35635185 99.11949444 C352.82974052 99.24888897 352.82974052 99.24888897 355.82974052 100.24888897 C355.89977503 117.53810173 355.95270136 134.82727032 355.98517704 152.11659241 C356.00065585 160.14405651 356.02176463 168.17143255 356.05605888 176.19884014 C356.08593033 183.1943075 356.10530815 190.18971109 356.11200601 197.18524045 C356.11592213 200.89045426 356.12514633 204.59548563 356.14693069 208.30064106 C356.17103406 212.4336197 356.17171198 216.56627977 356.1703167 220.69932842 C356.18649544 222.54862202 356.18649544 222.54862202 356.20300102 224.43527508 C356.19887703 225.55848156 356.19475304 226.68168804 356.19050407 227.83893108 C356.19326945 228.81695344 356.19603483 229.7949758 356.19888401 230.80263519 C355.82974052 233.24888897 355.82974052 233.24888897 354.56659412 235.06488419 C352.42845167 236.52244566 351.25481333 236.61719629 348.67931938 236.60292339 C347.83522514 236.60560223 346.99113091 236.60828106 346.12145805 236.61104107 C345.19874107 236.5986842 344.27602409 236.58632732 343.32534599 236.573596 C342.35115715 236.57242779 341.37696831 236.57125957 340.37325859 236.57005596 C337.14760019 236.56285774 333.92246781 236.53463861 330.69692802 236.50670147 C328.46159144 236.49856877 326.22624906 236.49190424 323.99090385 236.48665142 C318.10243547 236.46951339 312.21419618 236.43524414 306.32583427 236.39659405 C296.89263699 236.33744576 287.45932197 236.30362995 278.02600288 236.27082729 C274.72150403 236.25680575 271.41711848 236.23522364 268.11266899 236.21254253 C266.10022879 236.20252447 264.08778781 236.19265885 262.07534599 236.182971 C261.14858055 236.17466259 260.22181511 236.16635418 259.26696587 236.157794 C257.12102262 236.15021608 254.97498982 236.19379555 252.82974052 236.24888897 C251.03887081 238.03975869 251.7071626 240.46367762 251.70065922 242.84815127 C251.70502848 244.0635943 251.70502848 244.0635943 251.70948601 245.30359173 C251.70863158 246.1579086 251.70777716 247.01222546 251.70689684 247.89243072 C251.70523941 250.77762837 251.71076768 253.66276888 251.71621513 256.54796124 C251.71649697 258.60719584 251.71633933 260.66643055 251.71577263 262.72566509 C251.71548453 268.33493984 251.72138318 273.94419341 251.72834659 279.55346322 C251.73457815 285.40847527 251.73518377 291.26348776 251.73637199 297.11850262 C251.73948589 308.21429658 251.74770007 319.31008074 251.75772148 330.40587038 C251.7688808 343.03443071 251.77439261 355.66299149 251.77941692 368.29155552 C251.78988264 394.27733878 251.80748321 420.26311333 251.82974052 446.24888897 C253.4858871 446.63107664 255.15431077 446.96283999 256.82974052 447.24888897 C257.15974052 446.91888897 257.48974052 446.58888897 257.82974052 446.24888897 C259.64223973 446.227987 261.45539832 446.25830315 263.26724052 446.31138897 C268.17801023 446.35202182 272.56167843 445.90626977 277.33755302 444.81529522 C279.96988378 444.21703823 282.60557228 443.7600271 285.26724052 443.31138897 C290.89412233 442.29696521 296.34399482 440.84922988 301.82974052 439.24888897 C302.68696709 439.00009991 303.54419365 438.75131084 304.42739677 438.49498272 C309.93710186 436.86847009 315.40004068 435.12493144 320.82974052 433.24888897 C322.17938896 432.78482647 322.17938896 432.78482647 323.55630302 432.31138897 C329.21645432 430.31552295 334.52448043 428.04284766 339.82974052 425.24888897 C341.22454081 424.55929554 342.62037577 423.87179089 344.01724052 423.18638897 C346.29771278 422.05062436 348.45291105 420.87498665 350.64224052 419.56138897 C352.82974052 418.24888897 352.82974052 418.24888897 355.82974052 417.24888897 C356.15974052 416.58888897 356.48974052 415.92888897 356.82974052 415.24888897 C357.81974052 414.91888897 358.80974052 414.58888897 359.82974052 414.24888897 C359.82974052 413.58888897 359.82974052 412.92888897 359.82974052 412.24888897 C361.80974052 411.58888897 363.78974052 410.92888897 365.82974052 410.24888897 C365.82974052 409.58888897 365.82974052 408.92888897 365.82974052 408.24888897 C366.46911552 408.12513897 367.10849052 408.00138897 367.76724052 407.87388897 C368.78817802 407.56451397 368.78817802 407.56451397 369.82974052 407.24888897 C370.15974052 406.58888897 370.48974052 405.92888897 370.82974052 405.24888897 C372.48506675 404.23022668 374.15234191 403.23078084 375.82974052 402.24888897 C376.48974052 401.58888897 377.14974052 400.92888897 377.82974052 400.24888897 C378.53099052 399.75388897 379.23224052 399.25888897 379.95474052 398.74888897 C380.57349052 398.25388897 381.19224052 397.75888897 381.82974052 397.24888897 C381.82974052 396.58888897 381.82974052 395.92888897 381.82974052 395.24888897 C382.42142021 395.15865459 383.0130999 395.06842022 383.62270927 394.97545147 C386.39171342 394.0638855 387.31976162 392.87697744 389.14224052 390.62388897 C393.279537 385.67692802 397.43947774 380.84239749 402.82974052 377.24888897 C402.82974052 376.25888897 402.82974052 375.26888897 402.82974052 374.24888897 C403.48974052 374.24888897 404.14974052 374.24888897 404.82974052 374.24888897 C406.1933726 372.26942305 407.52392697 370.26696447 408.82974052 368.24888897 C409.82974052 367.24888897 410.82974052 366.24888897 411.82974052 365.24888897 C411.82974052 364.58888897 411.82974052 363.92888897 411.82974052 363.24888897 C412.48974052 363.24888897 413.14974052 363.24888897 413.82974052 363.24888897 C414.15974052 361.92888897 414.48974052 360.60888897 414.82974052 359.24888897 C415.48974052 359.24888897 416.14974052 359.24888897 416.82974052 359.24888897 C417.48974052 357.26888897 418.14974052 355.28888897 418.82974052 353.24888897 C419.48974052 353.24888897 420.14974052 353.24888897 420.82974052 353.24888897 C421.11849052 352.27951397 421.40724052 351.31013897 421.70474052 350.31138897 C422.82974052 347.24888897 422.82974052 347.24888897 424.82974052 346.24888897 C425.88745791 344.61824133 426.88247098 342.94608023 427.82974052 341.24888897 C428.22161552 340.54763897 428.61349052 339.84638897 429.01724052 339.12388897 C430.02854424 337.13068996 430.02854424 337.13068996 429.82974052 334.24888897 C430.48974052 334.24888897 431.14974052 334.24888897 431.82974052 334.24888897 C431.95349052 333.44451397 432.07724052 332.64013897 432.20474052 331.81138897 C432.41099052 330.96576397 432.61724052 330.12013897 432.82974052 329.24888897 C433.48974052 328.91888897 434.14974052 328.58888897 434.82974052 328.24888897 C435.60017394 326.47334575 435.60017394 326.47334575 436.20474052 324.31138897 C437.58344107 319.91502244 439.21695165 315.67546644 440.96255302 311.41295147 C441.64341131 309.71387268 442.25091095 307.98537769 442.82974052 306.24888897 C442.49974052 305.58888897 442.16974052 304.92888897 441.82974052 304.24888897 C442.48974052 304.24888897 443.14974052 304.24888897 443.82974052 304.24888897 C443.82974052 302.26888897 443.82974052 300.28888897 443.82974052 298.24888897 C444.48974052 298.24888897 445.14974052 298.24888897 445.82974052 298.24888897 C445.8787249 297.59662334 445.92770927 296.94435772 445.97817802 296.27232647 C446.40687954 291.26095353 447.2052136 287.02093682 448.82974052 282.24888897 C449.16241264 279.94893357 449.39549614 277.65206222 449.61489677 275.33873272 C449.8620388 272.93471485 450.35593878 270.61789767 450.82974052 268.24888897 C451.09151796 265.91334342 451.32827171 263.57699517 451.54849052 261.23717022 C451.82974052 259.24888897 451.82974052 259.24888897 452.82974052 257.24888897 C452.92729337 255.08266372 452.96051161 252.91340248 452.96255302 250.74498272 C452.96448662 248.79882061 452.96448662 248.79882061 452.96645927 246.81334209 C452.96436455 246.13666485 452.96226982 245.4599876 452.96011162 244.76280499 C452.95475254 242.69103482 452.9600657 240.61948058 452.96645927 238.54771709 C452.96517021 237.25156475 452.96388115 235.95541241 452.96255302 234.61998272 C452.96142509 233.42300762 452.96029716 232.22603252 452.95913506 230.99278545 C453.14236846 228.33717901 453.14236846 228.33717901 451.82974052 227.24888897 C451.82974052 225.24888897 451.82974052 223.24888897 451.82974052 221.24888897 C451.6724749 220.63013897 451.51520927 220.01138897 451.35317802 219.37388897 C450.7483147 216.91832443 450.60767937 214.58487997 450.45474052 212.06138897 C450.07726765 207.48300832 449.10462796 203.65507522 447.51724052 199.36607647 C446.83400292 197.26201522 446.53493651 195.38369604 446.32974052 193.18638897 C445.77388585 188.80903344 444.46721903 185.30440569 442.82974052 181.24888897 C442.16307386 179.24888897 441.49640719 177.24888897 440.82974052 175.24888897 C440.10204333 173.2986605 439.36076594 171.35388742 438.61880302 169.40904522 C437.50113832 166.34929978 436.53560369 163.24417403 435.57583427 160.13170147 C434.89475511 158.04931682 434.89475511 158.04931682 432.82974052 156.24888897 C432.20474052 154.12388897 432.20474052 154.12388897 431.82974052 152.24888897 C431.16974052 152.24888897 430.50974052 152.24888897 429.82974052 152.24888897 C429.72661552 151.52701397 429.62349052 150.80513897 429.51724052 150.06138897 C428.76626387 146.98921177 427.50959816 144.90866355 425.82974052 142.24888897 C425.49974052 141.25888897 425.16974052 140.26888897 424.82974052 139.24888897 C424.16974052 139.24888897 423.50974052 139.24888897 422.82974052 139.24888897 C422.58224052 138.40326397 422.33474052 137.55763897 422.07974052 136.68638897 C420.02416902 131.03356732 417.45053165 125.05928453 411.82974052 122.24888897 C411.72661552 121.67138897 411.62349052 121.09388897 411.51724052 120.49888897 C410.50833344 117.19701123 408.30779555 115.61430513 405.82974052 113.24888897 C404.16307386 111.24888897 402.49640719 109.24888897 400.82974052 107.24888897 C399.18605912 105.55954975 397.51545293 103.89628973 395.82974052 102.24888897 C394.30754138 100.72942268 392.78682982 99.20846532 391.26724052 97.68638897 C390.52345146 96.94259991 389.7796624 96.19881084 389.01333427 95.43248272 C387.54704043 93.96618888 386.10174673 92.47861604 384.67739677 90.97154522 C383.00695865 89.02157814 383.00695865 89.02157814 380.82974052 89.24888897 C380.82974052 88.58888897 380.82974052 87.92888897 380.82974052 87.24888897 C379.50974052 86.91888897 378.18974052 86.58888897 376.82974052 86.24888897 C376.82974052 85.58888897 376.82974052 84.92888897 376.82974052 84.24888897 C375.83974052 84.24888897 374.84974052 84.24888897 373.82974052 84.24888897 C373.82974052 83.58888897 373.82974052 82.92888897 373.82974052 82.24888897 C371.8502746 80.88525689 369.84781602 79.55470253 367.82974052 78.24888897 C366.82974052 77.24888897 365.82974052 76.24888897 364.82974052 75.24888897 C364.16974052 75.24888897 363.50974052 75.24888897 362.82974052 75.24888897 C362.49974052 74.58888897 362.16974052 73.92888897 361.82974052 73.24888897 C359.85085092 72.52194993 357.85019495 71.85072646 355.82974052 71.24888897 C355.82974052 70.58888897 355.82974052 69.92888897 355.82974052 69.24888897 C355.3218499 69.00654522 354.81395927 68.76420147 354.29067802 68.51451397 C350.85967429 66.8439878 347.72892222 65.17909168 344.57974052 62.99888897 C341.8105664 60.89097197 341.8105664 60.89097197 337.82974052 61.24888897 C337.49974052 60.58888897 337.16974052 59.92888897 336.82974052 59.24888897 C335.13203079 58.37255839 333.39535608 57.57083579 331.64224052 56.81138897 C328.63343568 55.49431265 325.71899367 54.18890109 322.82974052 52.62388897 C319.19014621 50.95574158 315.52892461 50.0087204 311.65786552 49.01451397 C308.23696736 48.08841447 304.93055065 46.9280305 301.60708427 45.70201397 C299.74203957 45.02010865 299.74203957 45.02010865 297.82974052 46.24888897 C297.82974052 45.58888897 297.82974052 44.92888897 297.82974052 44.24888897 C296.65411552 44.10451397 295.47849052 43.96013897 294.26724052 43.81138897 C292.78799536 43.62450924 291.30883009 43.43699618 289.82974052 43.24888897 C287.88067802 43.00138897 287.88067802 43.00138897 285.89224052 42.74888897 C282.82974052 42.24888897 282.82974052 42.24888897 281.82974052 41.24888897 C280.69536552 41.24888897 279.56099052 41.24888897 278.39224052 41.24888897 C274.82974052 41.24888897 274.82974052 41.24888897 272.82974052 40.24888897 C270.55407353 40.17979851 268.29678812 40.25140501 266.02114677 40.31138897 C263.82974052 40.24888897 263.82974052 40.24888897 260.82974052 39.24888897 C257.82905668 39.15456076 254.85187648 39.11863961 251.85117912 39.12863445 C250.92164946 39.12778003 249.9921198 39.1269256 249.03442258 39.12604529 C245.90668695 39.12439268 242.77900445 39.12990832 239.65127373 39.13536358 C237.41440647 39.13564552 235.17753912 39.13548757 232.94067192 39.13492107 C226.85632481 39.13463338 220.77199728 39.14052555 214.68765473 39.14749503 C208.33350298 39.15373328 201.9793508 39.15433274 195.62519646 39.15552044 C184.9563134 39.15827848 174.2874381 39.16453076 163.61855888 39.17344952 C152.62897592 39.18262682 141.63939491 39.1897061 130.64980888 39.19395733 C129.97254906 39.19422005 129.29528923 39.19448278 128.59750638 39.19475346 C125.19993412 39.19605849 121.80236185 39.1973222 118.40478957 39.19856536 C90.21310154 39.20893413 62.02142148 39.22662337 33.82974052 39.24888897 Z " fill="#FDFDFD" transform="translate(9.170259475708008,7.751111030578613)"/>
<path d="M0 0 C1.94129036 -0.01062721 1.94129036 -0.01062721 3.92179871 -0.02146912 C5.36433445 -0.01917507 6.80686987 -0.01666534 8.24940491 -0.01396179 C9.76205701 -0.01830691 11.27470691 -0.02348939 12.78735352 -0.02944946 C16.90303242 -0.0428725 21.01861967 -0.04341446 25.13431621 -0.04088616 C28.56637967 -0.03981865 31.99842441 -0.04469418 35.43048388 -0.04949158 C43.52541181 -0.06059827 51.62029335 -0.06101771 59.71522522 -0.05497742 C68.07450881 -0.04893591 76.43362416 -0.06125044 84.79287905 -0.08254749 C91.9623446 -0.10014367 99.13175652 -0.10616798 106.30124289 -0.10290974 C110.58654543 -0.10109351 114.87172798 -0.10376668 119.15701103 -0.11762428 C123.18632446 -0.13016582 127.215375 -0.12829365 131.24468422 -0.11521339 C132.72536684 -0.11283998 134.20606776 -0.11560956 135.68672943 -0.12383652 C137.70429638 -0.13424016 139.72193769 -0.12443648 141.73950195 -0.11352539 C142.86978789 -0.11369313 144.00007383 -0.11386087 145.16461086 -0.1140337 C147.9332428 0.26069641 147.9332428 0.26069641 149.58303624 1.48694009 C151.34078646 3.7960835 151.30720271 5.12893058 151.3051796 8.01552773 C151.31176944 8.99971833 151.31835928 9.98390893 151.32514882 10.99792349 C151.31709242 12.08185932 151.30903601 13.16579515 151.30073547 14.28257751 C151.30563873 16.0065814 151.30563873 16.0065814 151.31064105 17.76541364 C151.316677 20.96067609 151.3092064 24.15558332 151.29609871 27.35081434 C151.28522091 30.79458199 151.29161039 34.23832227 151.29588318 37.68209839 C151.30152316 44.42986447 151.2911897 51.17751715 151.27559522 57.9252639 C151.2580827 65.77644751 151.25663654 73.62760894 151.25597963 81.47880904 C151.2542907 95.48197575 151.23846417 109.48509068 151.2144928 123.48823547 C151.19122507 137.09012787 151.17706696 150.69198741 151.17347717 164.29389954 C151.17325441 165.13189172 151.17303164 165.9698839 151.17280212 166.83326979 C151.17235953 168.52131078 151.17191751 170.20935178 151.17147605 171.89739277 C151.17125649 172.73000173 151.17103692 173.56261068 151.1708107 174.42045021 C151.17048672 175.66612109 151.17048672 175.66612109 151.1701562 176.93695704 C151.16645923 189.88132991 151.15510004 202.82569745 151.1426803 215.77006448 C151.13823899 220.468947 151.13480324 225.16782902 151.13205817 229.86671282 C151.12763349 237.31763456 151.11988739 244.76853664 151.10528377 252.21944596 C151.09865891 255.62609249 151.09360799 259.0327216 151.09282303 262.43937492 C151.09108848 266.12387021 151.08323529 269.80830053 151.07368469 273.49278259 C151.07455117 274.58117986 151.07541766 275.66957713 151.0763104 276.79095614 C151.07246925 277.76993125 151.06862811 278.74890636 151.06467056 279.75754738 C151.06342407 280.60915274 151.06217757 281.46075811 151.0608933 282.33816969 C150.9332428 284.26069641 150.9332428 284.26069641 149.9332428 285.26069641 C147.25050308 285.38080572 144.59240676 285.43618728 141.90834045 285.45014954 C141.06260562 285.458457 140.21687078 285.46676447 139.34550762 285.47532368 C136.51279463 285.50207581 133.68007304 285.52190067 130.8473053 285.54194641 C128.85586093 285.55981345 126.86442108 285.57818898 124.87298584 285.5970459 C119.53689075 285.64657817 114.20076391 285.69063999 108.86461258 285.7336235 C99.03976253 285.81407042 89.21501221 285.90599706 79.39027405 285.99897766 C78.31750151 286.00897104 77.24472897 286.01896442 76.13944817 286.02926064 C63.32248271 286.15022849 50.50895872 286.31239827 37.69496155 286.61616516 C36.49190369 286.64425262 35.28884583 286.67234009 34.04933167 286.70127869 C28.8005015 286.8273855 23.55263609 286.96887277 18.30482483 287.13179016 C9.27673158 287.38327879 0.79926231 287.3415547 -8.0667572 285.26069641 C-9.40590797 281.2432441 -9.20430996 277.38062719 -9.19374084 273.19184875 C-9.19530084 272.2518229 -9.19686083 271.31179705 -9.19846809 270.34328556 C-9.20247175 267.17771929 -9.19929043 264.01220058 -9.19615173 260.84663391 C-9.19750642 258.58101371 -9.19928673 256.31539373 -9.20146179 254.04977417 C-9.20603847 247.87163636 -9.20424287 241.69351517 -9.20108271 235.51537704 C-9.19854801 229.01585089 -9.20090088 222.51632614 -9.20246887 216.01679993 C-9.20440945 204.35474038 -9.20129122 192.69268835 -9.19620954 181.03062999 C-9.19178363 170.55279027 -9.19248164 160.07496169 -9.1971283 149.59712219 C-9.20254398 137.37984646 -9.20443524 125.16257783 -9.20151603 112.94530106 C-9.19997878 106.49914026 -9.19968639 100.05298705 -9.20305252 93.60682678 C-9.21347863 70.15391575 -9.20240381 46.70118704 -8.73941016 23.25197029 C-8.70246203 21.36185299 -8.66845761 19.47167558 -8.63757157 17.58144951 C-8.59395217 15.01919394 -8.53733063 12.45759459 -8.47615051 9.89570618 C-8.46501622 9.14329966 -8.45388193 8.39089314 -8.44241023 7.61568642 C-8.24779101 0.78287494 -6.57070977 0.01193796 0 0 Z M31.9332428 39.26069641 C31.16723332 65.0901361 30.7489058 90.90477913 30.62991977 116.7449348 C30.60745641 121.43327444 30.58037434 126.12158782 30.55386353 130.80990601 C30.50472543 139.61654364 30.45950762 148.42319647 30.41584116 157.22986275 C30.35634501 169.18074271 30.29050291 181.1315878 30.22509098 193.08243656 C30.12275654 211.80849939 30.0286495 230.53459403 29.9332428 249.26069641 C56.6632428 249.26069641 83.3932428 249.26069641 110.9332428 249.26069641 C111.8339295 244.7572629 112.07365233 240.69291626 112.06022644 236.14498901 C112.06178643 235.33232336 112.06334642 234.51965772 112.06495368 233.68236583 C112.06893933 230.96179412 112.06578344 228.2412783 112.06263733 225.52070618 C112.06399246 223.56913724 112.06577302 221.61756856 112.06794739 219.66600037 C112.07250871 214.36646945 112.0707374 209.06695799 112.0675683 203.76742673 C112.06503765 198.22220892 112.06738425 192.67699278 112.06895447 187.1317749 C112.07077425 177.818219 112.06837502 168.50467103 112.06361389 159.19111633 C112.05817324 148.42397919 112.05993327 137.65686099 112.0654403 126.88972431 C112.06997877 117.64629249 112.07061832 108.40286636 112.06800163 99.15943378 C112.0664427 93.63836573 112.06623456 88.11730657 112.06953812 82.59623909 C112.07242742 77.404738 112.0704216 72.21326131 112.06464386 67.02176285 C112.06332189 65.11662397 112.06370084 63.21148304 112.06590652 61.30634499 C112.06864014 58.70533144 112.06520976 56.10439603 112.06022644 53.50338745 C112.06245716 52.74997639 112.06468788 51.99656532 112.0669862 51.22032362 C112.05179082 47.12941688 111.72807313 43.27444584 110.9332428 39.26069641 C100.92831432 39.10702385 90.92332119 38.95884211 80.91820717 38.81773281 C76.27278302 38.75204115 71.62740296 38.68443524 66.98207092 38.61250305 C62.50177405 38.54319603 58.02143121 38.478854 53.54101181 38.41800117 C51.82891105 38.39386572 50.11683484 38.36792017 48.40478897 38.34016228 C46.01278272 38.3016847 43.62077122 38.26955736 41.22865295 38.2389679 C40.15942848 38.21954887 40.15942848 38.21954887 39.06860352 38.19973755 C35.37771174 38.10489298 35.37771174 38.10489298 31.9332428 39.26069641 Z " fill="#FCFBFC" transform="translate(11.066757202148438,205.7393035888672)"/>
<path d="M0 0 C0.85570487 -0.0045988 1.71140974 -0.00919759 2.59304506 -0.01393574 C3.53349615 -0.00879218 4.47394724 -0.00364862 5.44289684 0.00165081 C6.44169705 -0.00076361 7.44049726 -0.00317802 8.46956414 -0.0056656 C11.83209376 -0.01132237 15.19443507 -0.0026244 18.55695629 0.00596905 C20.96142662 0.00489664 23.36589671 0.00295857 25.77036572 0.00021648 C31.63344798 -0.00413713 37.49647907 0.00082162 43.35955159 0.01006678 C50.18697137 0.02044573 57.01437893 0.02038071 63.84180512 0.01989421 C76.025676 0.01939333 88.20952066 0.02856092 100.39338207 0.04307842 C112.21500152 0.05715702 124.03659788 0.0642496 135.85822582 0.06358624 C136.94967581 0.0635263 136.94967581 0.0635263 138.0631753 0.06346516 C139.15273848 0.06340462 139.15273848 0.06340462 140.26431304 0.06334287 C153.71995415 0.06265261 167.17558545 0.06854668 180.63122338 0.07749609 C185.38937422 0.08051075 190.14752325 0.08157546 194.90567493 0.08202839 C201.31353937 0.08278262 207.72138433 0.08913582 214.12924099 0.09919453 C216.482668 0.10211675 218.8360978 0.10334545 221.18952656 0.10276699 C224.39933471 0.10227658 227.60907474 0.10792944 230.81887341 0.1151762 C232.21951179 0.1128533 232.21951179 0.1128533 233.6484459 0.11048347 C238.15441792 0.12730894 242.38669702 0.33082 246.82136059 1.24888897 C246.82136059 1.57888897 246.82136059 1.90888897 246.82136059 2.24888897 C163.66136059 2.57888897 80.50136059 2.90888897 -5.17863941 3.24888897 C-5.17863941 46.80888897 -5.17863941 90.36888897 -5.17863941 135.24888897 C-5.83863941 134.91888897 -6.49863941 134.58888897 -7.17863941 134.24888897 C-7.24864971 117.07278942 -7.30158833 99.89673426 -7.33407593 82.72052479 C-7.34955989 74.74571882 -7.37067846 66.7710014 -7.40495777 58.79625225 C-7.43481351 51.84730626 -7.45420328 44.89842438 -7.4609049 37.94941604 C-7.46482369 34.26826697 -7.47406475 30.58730131 -7.49582958 26.9062109 C-7.51990179 22.80176611 -7.52061188 18.69764234 -7.51921558 14.59312725 C-7.53000141 13.36602032 -7.54078724 12.13891338 -7.55189991 10.87462139 C-7.54777592 9.76120373 -7.54365192 8.64778606 -7.53940296 7.50062847 C-7.54216834 6.52905867 -7.54493372 5.55748886 -7.5477829 4.55647755 C-7.42596555 3.79497332 -7.3041482 3.03346909 -7.17863941 2.24888897 C-4.09554041 0.19348963 -3.4772994 -0.00102162 0 0 Z " fill="#D7CFCE" transform="translate(9.17863941192627,7.751111030578613)"/>
<path d="M0 0 C27.39 0 54.78 0 83 0 C82.67 68.31 82.34 136.62 82 207 C81.67 207 81.34 207 81 207 C81 139.35 81 71.7 81 2 C54.93 2 28.86 2 2 2 C2 14.87 2 27.74 2 41 C1.94184308 49.85330843 1.87481661 58.70571501 1.78125 67.55859375 C1.75866162 69.83455746 1.73624578 72.11052289 1.71398926 74.38648987 C1.65649843 80.22046684 1.59675317 86.05441833 1.53643799 91.8883667 C1.4746763 97.90407907 1.41518505 103.91981392 1.35546875 109.93554688 C1.2391263 121.62372019 1.12038796 133.3118677 1 145 C0.67 145 0.34 145 0 145 C0 97.15 0 49.3 0 0 Z " fill="#DFD9DD" transform="translate(41,243)"/>
<path d="M0 0 C1.134375 -0.02900391 2.26875 -0.05800781 3.4375 -0.08789062 C5.06945312 -0.10045898 5.06945312 -0.10045898 6.734375 -0.11328125 C7.70084961 -0.12786377 8.66732422 -0.14244629 9.66308594 -0.1574707 C13.07072849 0.46160366 14.08978908 1.6421103 16.25 4.3125 C16.74777794 6.84498024 16.74777794 6.84498024 16.74447632 9.75332642 C16.7528653 10.85818893 16.76125427 11.96305145 16.76989746 13.10139465 C16.75865845 14.30881821 16.74741943 15.51624176 16.73583984 16.76025391 C16.73963654 18.03534317 16.74343323 19.31043243 16.74734497 20.62416077 C16.75703258 24.11793956 16.74174439 27.61120679 16.72143888 31.10492373 C16.70386757 34.75950822 16.70739293 38.41407694 16.7081604 42.06869507 C16.70628793 48.2037614 16.68892894 54.33862975 16.66162109 60.47363281 C16.63014279 67.57192035 16.61962588 74.66999128 16.6210922 81.76834357 C16.62231172 88.59314525 16.61211222 95.41787625 16.59550858 102.24265671 C16.58843828 105.14932176 16.58478143 108.0559618 16.58372116 110.96263504 C16.5813441 115.01637304 16.56194117 119.06985309 16.54052734 123.12353516 C16.54143372 124.33500717 16.54234009 125.54647919 16.54327393 126.79466248 C16.53474396 127.89388535 16.52621399 128.99310822 16.51742554 130.12564087 C16.51407385 131.08464106 16.51072216 132.04364124 16.50726891 133.03170204 C16.25 135.3125 16.25 135.3125 14.25 137.3125 C14.25 93.0925 14.25 48.8725 14.25 3.3125 C-22.38 3.3125 -59.01 3.3125 -96.75 3.3125 C-96.75 2.9825 -96.75 2.6525 -96.75 2.3125 C-95.94614868 2.30219254 -95.14229736 2.29188507 -94.31408691 2.28126526 C-86.66661684 2.18249881 -79.01921186 2.07988668 -71.37184906 1.97316074 C-67.44209641 1.91844758 -63.51233602 1.86512204 -59.58251953 1.81518555 C-55.7763703 1.7667658 -51.97029203 1.71441689 -48.16423035 1.65955925 C-46.72610792 1.63948038 -45.28796635 1.62071983 -43.84980774 1.60342598 C-34.99895769 1.49592818 -26.20369591 1.15627441 -17.37408447 0.543396 C-11.58342552 0.17446421 -5.80098618 0.05154905 0 0 Z " fill="#E4DFE0" transform="translate(349.75,105.6875)"/>
<path d="M0 0 C0.99 0.495 0.99 0.495 2 1 C2.37890625 4.0546875 2.37890625 4.0546875 2.5625 7.875 C2.79531842 13.02806026 2.79531842 13.02806026 4 18 C4.09711576 20.76908189 4.1399579 23.51224926 4.1328125 26.28125 C4.13376923 27.0911438 4.13472595 27.9010376 4.13571167 28.73547363 C4.13639181 30.44685951 4.13454911 32.15824799 4.13037109 33.86962891 C4.12502049 36.48996777 4.13032169 39.11013522 4.13671875 41.73046875 C4.13605794 43.39322955 4.13477672 45.05599023 4.1328125 46.71875 C4.13483673 47.50318481 4.13686096 48.28761963 4.13894653 49.0958252 C4.12501817 52.32524842 4.02860822 54.91417533 3 58 C2.78196693 59.55853267 2.59633644 61.12182651 2.4375 62.6875 C2.31181641 63.89986328 2.31181641 63.89986328 2.18359375 65.13671875 C2.12300781 65.75160156 2.06242187 66.36648438 2 67 C1.67 67 1.34 67 1 67 C1.00523682 65.6809668 1.01047363 64.36193359 1.01586914 63.00292969 C1.03426457 58.00798244 1.04555529 53.01303803 1.05493164 48.01806641 C1.0598943 45.8751576 1.06666659 43.73225206 1.07543945 41.58935547 C1.13082743 27.69023041 0.85721922 13.87400119 0 0 Z " fill="#C7BBC2" transform="translate(496,215)"/>
<path d="M0 0 C0.99 0.33 1.98 0.66 3 1 C3 1.66 3 2.32 3 3 C3.99 3.33 4.98 3.66 6 4 C7.84499398 5.87617698 9.3683599 7.92737609 11 10 C10.67 10.66 10.34 11.32 10 12 C8.70212134 10.75645114 7.41193241 9.5048736 6.125 8.25 C5.40570313 7.55390625 4.68640625 6.8578125 3.9453125 6.140625 C2.13520321 4.14877783 1.05151914 2.4572342 0 0 Z " fill="#CFC2C4" transform="translate(428,81)"/>
<path d="M0 0 C2 3 2 3 1.828125 5.4453125 C1.63734375 6.32960938 1.4465625 7.21390625 1.25 8.125 C1.06953125 9.01445312 0.8890625 9.90390625 0.703125 10.8203125 C0.47109375 11.53960937 0.2390625 12.25890625 0 13 C-0.99 13.495 -0.99 13.495 -2 14 C-1.85866501 12.22880197 -1.71176792 10.45804713 -1.5625 8.6875 C-1.48128906 7.70136719 -1.40007812 6.71523438 -1.31640625 5.69921875 C-1 3 -1 3 0 0 Z " fill="#CBC5CF" transform="translate(495,287)"/>
<path d="M0 0 C2.13586678 3.20380017 2.23132175 4.01939967 2.125 7.6875 C2.10695313 8.49574219 2.08890625 9.30398437 2.0703125 10.13671875 C2.04710937 10.75160156 2.02390625 11.36648437 2 12 C1.34 11.67 0.68 11.34 0 11 C0.020625 10.0925 0.04125 9.185 0.0625 8.25 C0.01073123 5.5580237 -0.33569365 3.56232449 -1 1 C-0.67 0.67 -0.34 0.34 0 0 Z " fill="#EEEBF0" transform="translate(460,224)"/>
<path d="M0 0 C0.66 0 1.32 0 2 0 C1.71758359 1.46015291 1.42373386 2.91809793 1.125 4.375 C0.96257812 5.18710937 0.80015625 5.99921875 0.6328125 6.8359375 C0 9 0 9 -2 11 C-1.85892253 9.54119891 -1.71197585 8.08296449 -1.5625 6.625 C-1.48128906 5.81289063 -1.40007812 5.00078125 -1.31640625 4.1640625 C-1 2 -1 2 0 0 Z " fill="#CFC9CF" transform="translate(492,303)"/>
</svg>
