<?xml version="1.0" encoding="UTF-8"?>
<svg version="1.1" xmlns="http://www.w3.org/2000/svg" width="500" height="500">
<rect width="500" height="500" fill="white"/>
<path d="M0 0 C35.89933 -0.02289496 71.79865872 -0.04051278 107.69799453 -0.05106533 C111.93741628 -0.05231602 116.17683803 -0.05361034 120.41625977 -0.05493164 C121.26024295 -0.05519395 122.10422614 -0.05545626 122.97378457 -0.05572652 C136.63471039 -0.06007637 150.29563199 -0.06796017 163.9565553 -0.0771528 C177.97666235 -0.08650835 191.99676719 -0.09205965 206.01687723 -0.09408849 C214.6661772 -0.09545976 223.31546526 -0.09978896 231.96476156 -0.10791647 C237.89802187 -0.11320737 243.83127603 -0.11479895 249.76453852 -0.11350138 C253.18633689 -0.11286167 256.60811447 -0.11383395 260.02990913 -0.11920547 C263.74460096 -0.12418419 267.45924192 -0.12298282 271.17393494 -0.12025452 C272.24885773 -0.12316736 273.32378053 -0.1260802 274.43127674 -0.12908131 C281.75598289 -0.11455152 288.88851062 0.13835527 296 2 C297.53982093 2.32147139 299.0816629 2.63335702 300.625 2.9375 C301.5015625 3.1128125 302.378125 3.288125 303.28125 3.46875 C305.04973683 3.81431639 306.82054171 4.14829067 308.59375 4.46875 C313.24924652 5.33087899 317.4866224 6.4492429 321.875 8.21875 C324.3627609 9.13336798 326.86977389 9.78130333 329.4375 10.4375 C333.70917577 11.56841005 337.55936593 13.02096746 341.55078125 14.8984375 C344.51057026 16.22963447 347.52406777 17.36015086 350.5625 18.5 C354.9181544 20.15301902 359.08578767 21.92681653 363.2109375 24.0859375 C366.07527597 25.54937681 369.03183862 26.76326609 372 28 C372 28.66 372 29.32 372 30 C374.31 30.66 376.62 31.32 379 32 C379 32.66 379 33.32 379 34 C379.99 34 380.98 34 382 34 C382 34.66 382 35.32 382 36 C382.94875 36.309375 383.8975 36.61875 384.875 36.9375 C388 38 388 38 390 39 C390 39.66 390 40.32 390 41 C390.928125 41.268125 391.85625 41.53625 392.8125 41.8125 C396.57247843 43.21327628 398.22573088 44.45146176 400 48 C400.66 48 401.32 48 402 48 C402 48.66 402 49.32 402 50 C402.99 50 403.98 50 405 50 C405 50.66 405 51.32 405 52 C405.66 52.185625 406.32 52.37125 407 52.5625 C411.26905268 54.60808774 414.74163706 57.57184643 418 61 C418 61.66 418 62.32 418 63 C418.5465625 63.04382813 419.093125 63.08765625 419.65625 63.1328125 C423.15983374 64.42913848 425.12525854 67.11201742 427.5 69.875 C431.14524521 74.10016329 431.14524521 74.10016329 435.34375 77.7578125 C435.8903125 78.16773437 436.436875 78.57765625 437 79 C437 79.66 437 80.32 437 81 C437.66 81 438.32 81 439 81 C440.3726682 82.97321053 441.70427617 84.97543152 443 87 C443.66 87.66 444.32 88.32 445 89 C448 92.69230769 448 92.69230769 448 95 C448.66 95 449.32 95 450 95 C450.33 96.32 450.66 97.64 451 99 C451.66 99 452.32 99 453 99 C453.12375 99.639375 453.2475 100.27875 453.375 100.9375 C453.684375 101.9584375 453.684375 101.9584375 454 103 C454.66 103.33 455.32 103.66 456 104 C460 109.52941176 460 109.52941176 460 112 C460.66 112.33 461.32 112.66 462 113 C463.2890625 114.7421875 463.2890625 114.7421875 464.625 116.875 C465.07101562 117.57367188 465.51703125 118.27234375 465.9765625 118.9921875 C467 121 467 121 467 124 C467.66 124.33 468.32 124.66 469 125 C472.80659716 130.79264785 478 138.91669395 478 146 C478.66 146.33 479.32 146.66 480 147 C480.625 150.0625 480.625 150.0625 481 153 C481.66 153 482.32 153 483 153 C483.1953125 155.05078125 483.390625 157.1015625 483.5859375 159.15234375 C483.72257812 159.76207031 483.85921875 160.37179688 484 161 C484.66 161.33 485.32 161.66 486 162 C487.6785629 166.19640726 488.56222965 170.50703141 489.5 174.91015625 C489.97141185 177.10392385 489.97141185 177.10392385 491 179.5 C492.20052413 182.50131031 492.8393081 185.48169187 493.5 188.640625 C493.80802867 190.09413528 494.13697415 191.54361617 494.5 192.984375 C496.00029512 199.03243969 496.66315338 205.13640263 497.30273438 211.32421875 C497.38532707 214.96855547 497.38532707 214.96855547 499 218 C499.09810554 219.41090672 499.12798248 220.82665407 499.12939453 222.2409668 C499.13254669 223.14247971 499.13569885 224.04399261 499.13894653 224.9728241 C499.13591019 226.44613945 499.13591019 226.44613945 499.1328125 227.94921875 C499.13424759 229.45727837 499.13424759 229.45727837 499.13571167 230.99580383 C499.13639393 233.13025983 499.1345365 235.26471788 499.13037109 237.39916992 C499.12505123 240.65613529 499.13030012 243.91296099 499.13671875 247.16992188 C499.13605743 249.2421878 499.13477516 251.31445365 499.1328125 253.38671875 C499.13483673 254.35880783 499.13686096 255.33089691 499.13894653 256.33244324 C499.1228805 261.00763195 498.94264506 265.39974748 498 270 C497.8203716 271.51935692 497.6525042 273.04018128 497.5 274.5625 C497.15840251 277.75963905 496.66273616 280.85200325 496 284 C495.855625 285.175625 495.71125 286.35125 495.5625 287.5625 C495 291 495 291 493.9921875 292.9453125 C492.90358667 295.19965911 492.70814761 296.8276635 492.5625 299.3125 C492.16340468 303.68116836 490.79383006 306.98182066 489 311 C488.21594328 313.97845936 487.58281152 316.97623671 487 320 C486.34 320 485.68 320 485 320 C485.33 320.99 485.66 321.98 486 323 C485.33454215 324.66364462 484.65740215 326.32427741 483.90234375 327.94921875 C482.32538044 331.53322627 481.19142298 335.2736345 480 339 C479.34 339 478.68 339 478 339 C477.82210937 340.07701172 477.82210937 340.07701172 477.640625 341.17578125 C476.97995737 344.08835868 476.01170895 346.48440836 474.75 349.1875 C474.08677734 350.610625 474.08677734 350.610625 473.41015625 352.0625 C471.32681848 356.4023061 469.18626818 360.71119306 467 365 C466.34 365 465.68 365 465 365 C464.731875 365.886875 464.46375 366.77375 464.1875 367.6875 C463.0749365 370.7909666 461.89804222 373.31110685 460 376 C459.34 376 458.68 376 458 376 C457.34 377.98 456.68 379.96 456 382 C455.34 382 454.68 382 454 382 C453.67 383.32 453.34 384.64 453 386 C452.34 386 451.68 386 451 386 C450.6596875 387.051875 450.6596875 387.051875 450.3125 388.125 C448.67791204 391.70552601 446.5841965 394.02817402 444 397 C443.34 397.99 442.68 398.98 442 400 C441.34 400 440.68 400 440 400 C440 400.66 440 401.32 440 402 C439.34 402 438.68 402 438 402 C437.6596875 403.0828125 437.6596875 403.0828125 437.3125 404.1875 C435.73664872 407.56432417 433.79123384 409.55767039 431 412 C430.34 412 429.68 412 429 412 C429 412.66 429 413.32 429 414 C428.34 414 427.68 414 427 414 C427 414.66 427 415.32 427 416 C426.34 416 425.68 416 425 416 C424.6596875 416.8353125 424.6596875 416.8353125 424.3125 417.6875 C421.53902764 422.57409415 417.22197184 425.7055484 412.6484375 428.7890625 C410.92909878 429.98004095 410.92909878 429.98004095 409.4140625 431.6484375 C408 433 408 433 406 433 C405.67 433.99 405.34 434.98 405 436 C403 436.66666667 401 437.33333333 399 438 C398.67 438.99 398.34 439.98 398 441 C395.33916031 442.99396257 392.38757675 445 389 445 C389 445.66 389 446.32 389 447 C378.74609375 452.859375 378.74609375 452.859375 376.87890625 453.92578125 C375.6100374 454.65122602 374.34182347 455.37781736 373.07421875 456.10546875 C367.2687857 459.43505535 361.36090173 462.33660595 355.234375 465.01953125 C353.84358498 465.62982547 352.45721648 466.25043061 351.078125 466.88671875 C347.37836586 468.56470686 343.98480397 469.335866 340 470 C339.67 470.66 339.34 471.32 339 472 C336.68456957 472.72640955 334.34730065 473.38431458 332 474 C331.071875 474.309375 330.14375 474.61875 329.1875 474.9375 C321.98824243 477.33725252 314.96536912 479.27328913 307.47265625 480.52734375 C304.82459875 480.974544 304.82459875 480.974544 301.6875 482.125 C298.64328023 483.11614132 296.1883717 483 293 483 C291.865625 483.33 290.73125 483.66 289.5625 484 C285.83193655 485.0471757 282.85519099 485.0688427 279 485 C277.96875 485.165 276.9375 485.33 275.875 485.5 C271.21306455 486.10154006 266.68220075 486.02575231 261.98828125 485.9375 C259.18322347 485.86672359 259.18322347 485.86672359 257.30029297 486.49560547 C253.95068657 487.23008719 250.61902229 487.14240606 247.20703125 487.1328125 C246.46039719 487.13376923 245.71376312 487.13472595 244.94450378 487.13571167 C243.37193721 487.13639044 241.79936779 487.13455729 240.22680664 487.13037109 C237.81064644 487.12499588 235.39467023 487.13033784 232.97851562 487.13671875 C231.45052042 487.13605836 229.92252533 487.13477801 228.39453125 487.1328125 C227.66853226 487.13483673 226.94253326 487.13686096 226.1945343 487.13894653 C221.11496698 487.11496698 221.11496698 487.11496698 220 486 C219.90133347 484.47457639 219.87260704 482.94458152 219.87136555 481.4159708 C219.8681411 480.41896202 219.86491665 479.42195323 219.8615945 478.39473206 C219.8639174 476.73193086 219.8639174 476.73193086 219.86628723 475.03553772 C219.86402167 473.86819845 219.86175612 472.70085918 219.85942191 471.498146 C219.85416362 468.24340595 219.85344094 464.98870039 219.85461628 461.73395741 C219.85481955 458.22946911 219.84930865 454.7249892 219.84455872 451.22050476 C219.83623552 444.34918083 219.83350312 437.47786548 219.83294634 430.60653693 C219.83247197 425.02400532 219.83042121 419.44147656 219.82724571 413.85894585 C219.81843463 398.04845076 219.81382705 382.23796247 219.81457619 366.42746491 C219.81461614 365.57427502 219.8146561 364.72108514 219.81469727 363.84204102 C219.81473815 362.98781531 219.81477903 362.13358961 219.81482115 361.25347828 C219.81522776 347.40358164 219.80565555 333.55371217 219.7915589 319.7038234 C219.77721504 305.49952426 219.77028761 291.2952384 219.77115268 277.09093183 C219.77148533 269.10958582 219.7687083 261.12826829 219.75797462 253.14692879 C219.74889574 246.35224963 219.74667274 239.55761185 219.75348405 232.76292927 C219.75676253 229.29336404 219.75675848 225.82387833 219.7481308 222.35432053 C219.74048368 218.59995654 219.74500704 214.8458049 219.75276184 211.09144592 C219.74761828 209.98514251 219.74247471 208.8788391 219.73717529 207.73901135 C219.74177408 206.73939481 219.74637288 205.73977828 219.75111103 204.70987034 C219.75078498 203.40862244 219.75078498 203.40862244 219.75045234 202.0810867 C220 200 220 200 222 198 C223.8703022 197.75390434 223.8703022 197.75390434 226.18875122 197.75949097 C227.50548325 197.75536697 227.50548325 197.75536697 228.84881592 197.75115967 C230.2967453 197.7619455 230.2967453 197.7619455 231.77392578 197.77294922 C233.29592087 197.77251114 233.29592087 197.77251114 234.84866333 197.77206421 C238.21429899 197.77346148 241.57971534 197.7890414 244.9453125 197.8046875 C247.27415852 197.80841622 249.6030061 197.81126385 251.93185425 197.81326294 C258.07053943 197.82091051 264.20913043 197.84056866 270.34777832 197.8626709 C277.70823724 197.88669592 285.0687276 197.89590495 292.42921448 197.90757751 C303.61954188 197.92699238 314.80966252 197.96530726 326 198 C326 177.54 326 157.08 326 136 C301.22024886 135.97716897 276.44050662 135.95885886 251.66074753 135.94818783 C240.14752568 135.94309498 228.63431103 135.93616395 217.12109375 135.92456055 C170.38104024 135.87837297 123.66220071 135.88076808 76.93050861 136.83550739 C62.92230188 137.11358024 48.91364693 137.15428533 34.90307617 137.13037109 C31.32887594 137.12433323 27.7547452 137.12820348 24.18054676 137.13394356 C21.33861228 137.13751887 18.4966953 137.13643038 15.65476036 137.13381577 C13.69967474 137.13284002 11.7445884 137.13583565 9.789505 137.13894653 C8.64185165 137.13579437 7.4941983 137.13264221 6.31176758 137.12939453 C5.30471268 137.12859894 4.29765778 137.12780334 3.26008606 137.12698364 C1 137 1 137 0 136 C-0.09632045 134.2410657 -0.1218751 132.47822841 -0.12025452 130.71665955 C-0.12162918 129.57095993 -0.12300385 128.42526031 -0.12442017 127.24484253 C-0.12082489 125.97673737 -0.11722961 124.7086322 -0.11352539 123.40209961 C-0.11324352 122.06206769 -0.11340125 120.72203561 -0.1139679 119.38200378 C-0.11425587 115.73340562 -0.1083592 112.08484005 -0.10139394 108.43624949 C-0.09516034 104.62722484 -0.0945566 100.8181995 -0.09336853 97.00917053 C-0.09025523 89.79142246 -0.08204186 82.57368946 -0.07201904 75.35594803 C-0.06085786 67.14084743 -0.05534744 58.92574612 -0.05032361 50.71063983 C-0.03985925 33.80708449 -0.02225983 16.90354384 0 0 Z M38 38 C36.68142452 40.63715096 36.88008296 42.5983264 36.88647461 45.55126953 C36.88655014 46.71232208 36.88662567 47.87337463 36.88670349 49.0696106 C36.89186478 50.32796722 36.89702606 51.58632385 36.90234375 52.8828125 C36.9037587 54.16735321 36.90517365 55.45189392 36.90663147 56.77536011 C36.91045089 60.19156842 36.92027627 63.60773426 36.93133545 67.02392578 C36.94156193 70.50943426 36.94613174 73.9949496 36.95117188 77.48046875 C36.96189904 84.32032995 36.97896858 91.16016294 37 98 C77.53657831 98.04576244 118.07315327 98.08101158 158.60975225 98.10213066 C163.39380623 98.10463212 168.17786016 98.10722076 172.96191406 98.10986328 C174.39056244 98.11065021 174.39056244 98.11065021 175.84807239 98.11145304 C191.27639229 98.12015928 206.70469731 98.13593047 222.13300838 98.15430559 C237.9599901 98.17299854 253.78696402 98.18411544 269.61395633 98.18817699 C279.38263817 98.1909233 289.15127794 98.19960214 298.91994683 98.21583293 C305.61568762 98.22639234 312.31140662 98.22960299 319.00715514 98.22700275 C322.87213587 98.22571984 326.73704302 98.22770771 330.60201073 98.23841095 C334.79072192 98.24992614 338.97927588 98.24598235 343.16799927 98.24050903 C345.00360245 98.24924756 345.00360245 98.24924756 346.87628853 98.25816262 C347.99943801 98.25418052 349.12258749 98.25019842 350.2797718 98.24609566 C351.24653977 98.2468551 352.21330773 98.24761454 353.20937169 98.24839699 C356.37358418 97.96674685 359.03178579 97.105989 362 96 C363.03550347 99.1065104 363.11801274 101.22797619 363.10534668 104.48358154 C363.10327461 105.60001667 363.10120255 106.7164518 363.09906769 107.86671829 C363.09151207 109.07440243 363.08395645 110.28208656 363.07617188 111.52636719 C363.06994434 113.40830339 363.06994434 113.40830339 363.063591 115.32825851 C363.04859611 119.21889959 363.02564972 123.10941564 363 127 C362.99296051 128.13631363 362.98592102 129.27262726 362.97866821 130.44337463 C362.92835403 138.1551184 362.85665911 145.86659218 362.78125 153.578125 C362.75871573 155.98191218 362.73629795 158.38570046 362.71398926 160.78948975 C362.65595619 167.00996004 362.59637886 173.23041454 362.53643799 179.4508667 C362.47515002 185.84093331 362.41538037 192.23101412 362.35546875 198.62109375 C362.23843387 211.08074321 362.11976149 223.54037647 362 236 C360.82759766 235.99777939 359.65519531 235.99555878 358.44726562 235.99327087 C347.38321786 235.97297428 336.31917388 235.95799646 325.25511169 235.94818783 C319.56736473 235.94297556 313.87963283 235.93590801 308.19189453 235.92456055 C302.70003105 235.91367278 297.20818204 235.90771068 291.71630859 235.90512276 C289.62402112 235.90327912 287.53173442 235.89967898 285.43945312 235.89426994 C282.50258694 235.88698135 279.56578007 235.88601235 276.62890625 235.88647461 C275.7693483 235.88287933 274.90979034 235.87928406 274.02418518 235.87557983 C268.92736408 235.88422608 264.04543589 236.2681644 259 237 C257.47262239 241.76893968 256.75037599 245.76120113 256.75276184 250.81506348 C256.74914022 251.78821227 256.74914022 251.78821227 256.74544543 252.78102064 C256.73985033 254.93549925 256.74843978 257.08967576 256.75708008 259.24414062 C256.75600606 260.79717082 256.75406561 262.35020061 256.75132751 263.90322876 C256.74649186 268.11033861 256.75412161 272.31734189 256.76428056 276.52443886 C256.77309599 280.94300836 256.77130284 285.36157486 256.7709198 289.78015137 C256.77185576 297.20794442 256.78052581 304.63569658 256.79418945 312.06347656 C256.80986789 320.61740735 256.81518906 329.17129324 256.8144539 337.72523737 C256.81377464 346.86689577 256.82074198 356.00853714 256.8299005 365.15019035 C256.83201864 367.76568035 256.83273991 370.38116755 256.83313942 372.99665833 C256.83415515 377.13352433 256.84035032 381.27035365 256.85030556 385.40720749 C256.85319036 386.91348928 256.85446425 388.41977529 256.85387802 389.92605972 C256.8517813 398.60465692 257.12208705 407.21225715 257.77527046 415.86480045 C258.03791196 419.52890933 258.11458143 423.13582899 258.09765625 426.80859375 C258.09443359 428.06865234 258.09121094 429.32871094 258.08789062 430.62695312 C258.07951172 431.88443359 258.07113281 433.14191406 258.0625 434.4375 C258.05798828 435.75298828 258.05347656 437.06847656 258.04882812 438.42382812 C258.03722046 441.61593638 258.02089675 444.80794141 258 448 C259.89575251 448.02721176 261.79161979 448.04649136 263.6875 448.0625 C265.27111328 448.07990234 265.27111328 448.07990234 266.88671875 448.09765625 C269.73094775 448.00843953 272.23039769 447.6064474 275 447 C276.66666667 447 278.33333333 447 280 447 C281.33851844 446.688139 282.6715882 446.35243578 284 446 C299.79329609 442.34357542 299.79329609 442.34357542 306.5 441.625 C310.56040555 440.89992758 313.99782075 439.48387014 317.765625 437.83984375 C320 437 320 437 323 437 C323 436.34 323 435.68 323 435 C324.04220703 435.07734375 324.04220703 435.07734375 325.10546875 435.15625 C328.62007238 434.96652781 331.09760163 433.91314214 334.3125 432.5 C335.38113281 432.0359375 336.44976562 431.571875 337.55078125 431.09375 C338.35902344 430.7328125 339.16726563 430.371875 340 430 C340 429.34 340 428.68 340 428 C341.26650391 427.87238281 341.26650391 427.87238281 342.55859375 427.7421875 C346.54135936 426.88324826 349.61956407 425.20642822 353.0625 423.125 C353.9606543 422.59712891 353.9606543 422.59712891 354.87695312 422.05859375 C357.52615779 420.4975071 360.15658196 418.90548064 362.7890625 417.31640625 C364.82064007 416.10679204 366.8705155 415.02530735 369 414 C369 413.34 369 412.68 369 412 C370.0828125 411.5978125 370.0828125 411.5978125 371.1875 411.1875 C373.99766383 410.00098638 376.48416557 408.72514361 379 407 C379 406.34 379 405.68 379 405 C379.804375 404.731875 380.60875 404.46375 381.4375 404.1875 C382.283125 403.795625 383.12875 403.40375 384 403 C384.33 402.01 384.66 401.02 385 400 C385.99 400 386.98 400 388 400 C388 399.34 388 398.68 388 398 C388.87398438 397.5978125 388.87398438 397.5978125 389.765625 397.1875 C392.02786601 395.98519009 393.80576318 394.66174087 395.75 393 C396.67039062 392.2265625 396.67039062 392.2265625 397.609375 391.4375 C399.23176376 390.09376748 399.23176376 390.09376748 399 388 C399.66 388 400.32 388 401 388 C404.77641119 384.64319005 407.65750004 380.88683102 410.5703125 376.76953125 C412 375 412 375 415 373 C415 372.01 415 371.02 415 370 C415.66 370 416.32 370 417 370 C419.17204 367.03812728 420.83561997 364.49314009 422 361 C422.66 360.67 423.32 360.34 424 360 C424.33 359.01 424.66 358.02 425 357 C425.66 356.67 426.32 356.34 427 356 C428.44249915 353.89707956 429.79904441 351.79900493 431.125 349.625 C431.49753906 349.03460938 431.87007813 348.44421875 432.25390625 347.8359375 C434.49651888 344.19435744 434.49651888 344.19435744 435 340 C435.66 340 436.32 340 437 340 C437.84026396 338.23244474 438.67198722 336.46082737 439.5 334.6875 C440.19609375 333.20830078 440.19609375 333.20830078 440.90625 331.69921875 C442.18777472 329.02199874 442.18777472 329.02199874 442 326 C442.66 326 443.32 326 444 326 C444.33 323.69 444.66 321.38 445 319 C445.66 319 446.32 319 447 319 C447.1340625 318.42765625 447.268125 317.8553125 447.40625 317.265625 C447.99048023 315.03632543 448.72024731 312.91771248 449.5 310.75 C450.95154684 306.48032806 451.59232766 302.48439579 452 298 C452.66 298 453.32 298 454 298 C454.12375 297.195625 454.2475 296.39125 454.375 295.5625 C454.84534567 292.8815297 455.38513457 290.27259221 456 287.625 C456.67783072 284.66447467 457.18093075 281.76976252 457.5 278.75 C458 275 458 275 459.0625 272.625 C460.32105006 269.10105984 460.10063327 265.91836473 459.97265625 262.20703125 C460 260 460 260 461 258 C461.09777423 255.81945029 461.13077473 253.63586472 461.1328125 251.453125 C461.13376923 250.80430359 461.13472595 250.15548218 461.13571167 249.48699951 C461.13639262 248.11177473 461.13454426 246.73654674 461.13037109 245.36132812 C461.12505612 243.27206028 461.13030089 241.18301083 461.13671875 239.09375 C461.13605728 237.75520786 461.13477469 236.41666586 461.1328125 235.078125 C461.13168457 233.86543945 461.13055664 232.65275391 461.12939453 231.40332031 C461.00678638 228.17849455 460.57077799 225.17098885 460 222 C460.020625 221.195625 460.04125 220.39125 460.0625 219.5625 C460.10704226 216.85626409 460.10704226 216.85626409 459.0625 213.8125 C458.19819714 210.71117797 457.76445993 208.16871082 457.5 205 C457.14303254 200.75533238 456.31887535 197.04455106 455 193 C454.34 193 453.68 193 453 193 C453.20625 192.443125 453.4125 191.88625 453.625 191.3125 C454.11364217 188.29920662 453.19351834 186.78487613 452 184 C451.62406934 182.0075675 451.28020455 180.0081326 451 178 C450.34 178 449.68 178 449 178 C449.33 177.01 449.66 176.02 450 175 C449.19149361 172.36060817 449.19149361 172.36060817 447.875 169.5 C447.4109375 168.43523437 446.946875 167.37046875 446.46875 166.2734375 C445.9840625 165.19320312 445.499375 164.11296875 445 163 C444.5565625 162.00226563 444.113125 161.00453125 443.65625 159.9765625 C439.50765863 148.52956234 439.50765863 148.52956234 432 140 C431.375 137.4375 431.375 137.4375 431 135 C430.34 135 429.68 135 429 135 C428.34 133.02 427.68 131.04 427 129 C426.34 129 425.68 129 425 129 C424.67 127.35 424.34 125.7 424 124 C423.34 124 422.68 124 422 124 C421.731875 123.443125 421.46375 122.88625 421.1875 122.3125 C419.89100504 119.78774666 418.57523677 117.36285516 417 115 C416.34 115 415.68 115 415 115 C414.896875 114.401875 414.79375 113.80375 414.6875 113.1875 C413.90175967 110.68741714 413.03081147 109.62464918 411 108 C410.34 108 409.68 108 409 108 C409 107.34 409 106.68 409 106 C407.15811388 103.94729537 407.15811388 103.94729537 405 103 C404.566875 102.09507813 404.566875 102.09507813 404.125 101.171875 C402.78284392 98.58076812 401.20583192 97.14766422 399 95.25 C398.29875 94.63640625 397.5975 94.0228125 396.875 93.390625 C395.1213343 91.80143078 395.1213343 91.80143078 393 92 C392.5978125 91.0409375 392.5978125 91.0409375 392.1875 90.0625 C391.11332248 87.66868314 391.11332248 87.66868314 388 87 C387.67 86.34 387.34 85.68 387 85 C384.98330173 83.86649466 384.98330173 83.86649466 383 83 C383 82.34 383 81.68 383 81 C381.68 80.67 380.36 80.34 379 80 C379 79.34 379 78.68 379 78 C378.360625 77.87625 377.72125 77.7525 377.0625 77.625 C376.381875 77.41875 375.70125 77.2125 375 77 C374.67 76.34 374.34 75.68 374 75 C371.58690829 73.2767789 369.16627394 71.62314477 366.6875 70 C366.01009766 69.54882812 365.33269531 69.09765625 364.63476562 68.6328125 C358.79032193 64.46962843 358.79032193 64.46962843 352 63 C352 62.34 352 61.68 352 61 C351.48953125 60.78085938 350.9790625 60.56171875 350.453125 60.3359375 C345.84485726 58.32594838 341.38547867 56.15800336 336.9375 53.8125 C332.1327521 51.37013775 328.36821015 50.20646962 323 50 C323 49.34 323 48.68 323 48 C322.21496094 47.80664062 321.42992187 47.61328125 320.62109375 47.4140625 C316.16648021 46.30997424 311.72291219 45.20829673 307.3125 43.9375 C302.26512841 42.50899861 297.17444265 41.36240711 292 40.5 C289 40 289 40 285.1875 38.9375 C279.774906 37.67487087 274.37500426 37.86802413 268.85229492 37.98608398 C265.60971691 38.04810953 263.10383896 38.03461299 260 37 C257.1961684 36.90387222 254.41738383 36.86533146 251.61349487 36.87301636 C250.74748504 36.87145637 249.8814752 36.86989638 248.98922265 36.86828911 C246.07596856 36.8642881 243.16276623 36.86746538 240.24951172 36.87060547 C238.16517608 36.86925097 236.08084068 36.86747076 233.99650574 36.86529541 C228.32476642 36.86072516 222.65304524 36.86250942 216.9813056 36.8656745 C211.04776809 36.86820221 205.11423215 36.86585922 199.18069458 36.86428833 C189.20867636 36.86246699 179.23666554 36.86487113 169.26464844 36.86962891 C157.7432597 36.87506252 146.22188867 36.87331529 134.70050037 36.8678025 C124.80993367 36.86325969 114.9193723 36.86262682 105.0288049 36.86524117 C99.12140241 36.86679866 93.21400824 36.86701234 87.30660629 36.86370468 C81.74659462 36.86080934 76.18660568 36.86283224 70.62659645 36.86859894 C68.58887711 36.869918 66.55115584 36.86954695 64.51343727 36.86733627 C61.72506826 36.86459092 58.93677144 36.86804723 56.14840698 36.87301636 C55.34789693 36.87078564 54.54738687 36.86855491 53.72261894 36.86625659 C45.80219934 36.84612662 45.80219934 36.84612662 38 38 Z " fill="#323131" transform="translate(0,6)"/>
<path d="M0 0 C1.14947585 0.00092179 2.2989517 0.00184359 3.48326015 0.00279331 C4.79724285 0.00141865 6.11122555 0.00004398 7.4650259 -0.00137234 C8.93484424 0.00216728 10.40466235 0.0058021 11.87448025 0.00952244 C13.411554 0.0098043 14.94862789 0.0096466 16.48570156 0.00907993 C20.67147095 0.00879192 24.85721194 0.01468931 29.04297471 0.02165389 C33.41254392 0.02788674 37.7821137 0.02849117 42.15168667 0.0296793 C50.43191283 0.03279282 58.71212586 0.04100648 66.99234623 0.05102879 C76.41661395 0.06218929 85.84088228 0.06770021 95.26515496 0.07272422 C114.65699155 0.08318908 134.0488159 0.10078892 153.44064236 0.12304783 C154.50655391 30.8111639 154.60485372 61.48641239 154.60789943 92.19049835 C154.60840091 96.27494185 154.61070733 100.35938315 154.61339664 104.44382572 C154.62213105 117.98823094 154.62682462 131.53262841 154.62606617 145.07703647 C154.62602621 145.7987876 154.62598626 146.52053873 154.62594509 147.26416111 C154.62590421 147.98681051 154.62586333 148.70945991 154.62582121 149.45400777 C154.62541128 161.26783138 154.63508577 173.08162366 154.64908346 184.89543816 C154.66342164 197.09400694 154.67035584 209.29256033 154.66948968 221.49113774 C154.66915802 228.31386645 154.67189506 235.13656182 154.68266773 241.95928288 C154.69268011 248.33887858 154.69246501 254.71842164 154.6851511 261.09802151 C154.6841002 263.44187301 154.68649783 265.78572885 154.69251156 268.12957287 C154.70015989 271.31488148 154.69563551 274.49993994 154.68788052 277.68524265 C154.69302408 278.62234255 154.69816764 279.55944244 154.70346707 280.5249393 C154.69886828 281.37285234 154.69426948 282.22076538 154.68953133 283.09437275 C154.68985738 284.19693979 154.68985738 284.19693979 154.69019002 285.32178092 C154.44064236 287.12304783 154.44064236 287.12304783 152.44064236 289.12304783 C149.79505825 289.3719368 149.79505825 289.3719368 146.36715603 289.37028599 C145.0715173 289.37448048 143.77587856 289.37867496 142.44097805 289.38299656 C140.99685499 289.37751264 139.55273268 289.37182964 138.10861111 289.36596775 C136.59433822 289.36704018 135.08006573 289.36897828 133.56579494 289.37172031 C129.44603544 289.37657809 125.32638384 289.36890139 121.20663738 289.35876727 C116.90207187 289.35000171 112.59750989 289.35174393 108.29293728 289.35212803 C101.06318252 289.35119069 93.83346966 289.34249744 86.60372829 289.32885838 C78.2365272 289.31313212 69.86937202 289.30786023 61.50215721 289.30859393 C53.46428125 289.30920364 45.4264203 289.30410338 37.38854885 289.29580212 C33.96274607 289.2922651 30.53694859 289.29043827 27.11114407 289.28990841 C23.07944328 289.28890609 19.04778126 289.2828186 15.01609325 289.27274227 C13.53338133 289.2698139 12.05066495 289.26859258 10.56795025 289.26916981 C8.55000555 289.26965824 6.53206251 289.26340323 4.51412868 289.2567606 C3.38292095 289.25508475 2.25171322 289.25340891 1.08622646 289.25168228 C-1.55935764 289.12304783 -1.55935764 289.12304783 -3.55935764 288.12304783 C-3.58222274 251.57796722 -3.59985522 215.03288787 -3.61042297 178.48780159 C-3.61167375 174.17798457 -3.61296807 169.86816756 -3.61428928 165.55835056 C-3.61455159 164.70030643 -3.6148139 163.8422623 -3.61508416 162.95821684 C-3.61944112 149.04615855 -3.62732881 135.13410437 -3.63651044 121.22204853 C-3.64584626 106.95789743 -3.6514131 92.69374849 -3.65344614 78.42959446 C-3.65482151 69.62058216 -3.6591729 60.81158149 -3.66727411 52.00257277 C-3.67254068 45.97032025 -3.67416214 39.93807378 -3.67285902 33.90581913 C-3.6722155 30.42020361 -3.67323471 26.93460848 -3.67856312 23.44899654 C-3.68349264 19.67895848 -3.68235868 15.90897132 -3.67961216 12.13893223 C-3.682525 11.02514291 -3.68543784 9.91135359 -3.68843895 8.76381308 C-3.6864479 7.7620875 -3.68445686 6.76036192 -3.68240547 5.72828102 C-3.68278519 4.85682286 -3.68316491 3.98536471 -3.68355614 3.08749872 C-3.49251383 0.06577749 -3.04357554 0.14632787 0 0 Z M34.44064236 39.12304783 C33.89754036 43.37647348 33.67873067 47.6667311 33.39254665 51.94409275 C33.34807695 52.60787634 33.30360724 53.27165993 33.25778997 53.95555818 C32.19919838 70.15441338 32.16214564 86.33478244 32.20492291 102.56170392 C32.21391359 106.71334995 32.2119422 110.8649945 32.21156216 115.01664829 C32.21248782 121.95553616 32.22103184 128.89437929 32.23483181 135.83325291 C32.25067664 143.82940314 32.25582481 151.82550508 32.25509626 159.82166988 C32.25441984 168.40970877 32.26134998 176.99772939 32.27054286 185.58576274 C32.27266314 188.03672751 32.27338243 190.4876893 32.27378178 192.9386549 C32.2747905 196.78607459 32.28093006 200.63345426 32.29094791 204.48086071 C32.29385022 205.88486581 32.29510293 207.28887551 32.29452038 208.69288349 C32.29402372 210.61930109 32.30034601 212.54571674 32.30692959 214.47212315 C32.30860543 215.54576272 32.31028128 216.61940229 32.3120079 217.7255764 C32.46900606 221.87218516 32.98239793 225.99884795 33.44064236 230.12304783 C33.44064236 236.72304783 33.44064236 243.32304783 33.44064236 250.12304783 C60.83064236 250.12304783 88.22064236 250.12304783 116.44064236 250.12304783 C116.44064236 180.49304783 116.44064236 110.86304783 116.44064236 39.12304783 C112.48155927 38.13327706 108.9689378 37.98205257 104.93405056 37.9936533 C104.18404781 37.99190098 103.43404507 37.99014866 102.66131496 37.98834324 C100.18799416 37.98394988 97.71474511 37.98685296 95.24142361 37.99023533 C93.52317701 37.98956178 91.8049305 37.98859133 90.08668423 37.98733616 C86.48973589 37.98586278 82.89281241 37.98800301 79.29586697 37.99267673 C74.67528631 37.99838669 70.05476358 37.99508476 65.43418503 37.98910427 C61.88871221 37.98549994 58.34325326 37.98663643 54.79778004 37.98923206 C53.09325243 37.98990102 51.38872358 37.98907399 49.68419743 37.98675251 C47.30911425 37.98422669 44.93412658 37.98806496 42.55905056 37.9936533 C41.84892315 37.99162907 41.13879574 37.98960484 40.40714931 37.98751926 C37.14305988 37.72210066 37.14305988 37.72210066 34.44064236 39.12304783 Z " fill="#2E2C2D" transform="translate(3.5593576431274414,203.87695217132568)"/>
<path d="M0 0 C1.14947585 0.00092179 2.2989517 0.00184359 3.48326015 0.00279331 C4.79724285 0.00141865 6.11122555 0.00004398 7.4650259 -0.00137234 C8.93484424 0.00216728 10.40466235 0.0058021 11.87448025 0.00952244 C13.411554 0.0098043 14.94862789 0.0096466 16.48570156 0.00907993 C20.67147095 0.00879192 24.85721194 0.01468931 29.04297471 0.02165389 C33.41254392 0.02788674 37.7821137 0.02849117 42.15168667 0.0296793 C50.43191283 0.03279282 58.71212586 0.04100648 66.99234623 0.05102879 C76.41661395 0.06218929 85.84088228 0.06770021 95.26515496 0.07272422 C114.65699155 0.08318908 134.0488159 0.10078892 153.44064236 0.12304783 C154.50655391 30.8111639 154.60485372 61.48641239 154.60789943 92.19049835 C154.60840091 96.27494185 154.61070733 100.35938315 154.61339664 104.44382572 C154.62213105 117.98823094 154.62682462 131.53262841 154.62606617 145.07703647 C154.62602621 145.7987876 154.62598626 146.52053873 154.62594509 147.26416111 C154.62590421 147.98681051 154.62586333 148.70945991 154.62582121 149.45400777 C154.62541128 161.26783138 154.63508577 173.08162366 154.64908346 184.89543816 C154.66342164 197.09400694 154.67035584 209.29256033 154.66948968 221.49113774 C154.66915802 228.31386645 154.67189506 235.13656182 154.68266773 241.95928288 C154.69268011 248.33887858 154.69246501 254.71842164 154.6851511 261.09802151 C154.6841002 263.44187301 154.68649783 265.78572885 154.69251156 268.12957287 C154.70015989 271.31488148 154.69563551 274.49993994 154.68788052 277.68524265 C154.69302408 278.62234255 154.69816764 279.55944244 154.70346707 280.5249393 C154.69886828 281.37285234 154.69426948 282.22076538 154.68953133 283.09437275 C154.68985738 284.19693979 154.68985738 284.19693979 154.69019002 285.32178092 C154.44064236 287.12304783 154.44064236 287.12304783 152.44064236 289.12304783 C149.79505825 289.3719368 149.79505825 289.3719368 146.36715603 289.37028599 C145.0715173 289.37448048 143.77587856 289.37867496 142.44097805 289.38299656 C140.99685499 289.37751264 139.55273268 289.37182964 138.10861111 289.36596775 C136.59433822 289.36704018 135.08006573 289.36897828 133.56579494 289.37172031 C129.44603544 289.37657809 125.32638384 289.36890139 121.20663738 289.35876727 C116.90207187 289.35000171 112.59750989 289.35174393 108.29293728 289.35212803 C101.06318252 289.35119069 93.83346966 289.34249744 86.60372829 289.32885838 C78.2365272 289.31313212 69.86937202 289.30786023 61.50215721 289.30859393 C53.46428125 289.30920364 45.4264203 289.30410338 37.38854885 289.29580212 C33.96274607 289.2922651 30.53694859 289.29043827 27.11114407 289.28990841 C23.07944328 289.28890609 19.04778126 289.2828186 15.01609325 289.27274227 C13.53338133 289.2698139 12.05066495 289.26859258 10.56795025 289.26916981 C8.55000555 289.26965824 6.53206251 289.26340323 4.51412868 289.2567606 C3.38292095 289.25508475 2.25171322 289.25340891 1.08622646 289.25168228 C-1.55935764 289.12304783 -1.55935764 289.12304783 -3.55935764 288.12304783 C-3.58222274 251.57796722 -3.59985522 215.03288787 -3.61042297 178.48780159 C-3.61167375 174.17798457 -3.61296807 169.86816756 -3.61428928 165.55835056 C-3.61455159 164.70030643 -3.6148139 163.8422623 -3.61508416 162.95821684 C-3.61944112 149.04615855 -3.62732881 135.13410437 -3.63651044 121.22204853 C-3.64584626 106.95789743 -3.6514131 92.69374849 -3.65344614 78.42959446 C-3.65482151 69.62058216 -3.6591729 60.81158149 -3.66727411 52.00257277 C-3.67254068 45.97032025 -3.67416214 39.93807378 -3.67285902 33.90581913 C-3.6722155 30.42020361 -3.67323471 26.93460848 -3.67856312 23.44899654 C-3.68349264 19.67895848 -3.68235868 15.90897132 -3.67961216 12.13893223 C-3.682525 11.02514291 -3.68543784 9.91135359 -3.68843895 8.76381308 C-3.6864479 7.7620875 -3.68445686 6.76036192 -3.68240547 5.72828102 C-3.68278519 4.85682286 -3.68316491 3.98536471 -3.68355614 3.08749872 C-3.49251383 0.06577749 -3.04357554 0.14632787 0 0 Z M-2.55935764 1.12304783 C-2.55935764 95.50304783 -2.55935764 189.88304783 -2.55935764 287.12304783 C48.59064236 287.12304783 99.74064236 287.12304783 152.44064236 287.12304783 C152.44064236 192.74304783 152.44064236 98.36304783 152.44064236 1.12304783 C101.29064236 1.12304783 50.14064236 1.12304783 -2.55935764 1.12304783 Z " fill="#B8B0B5" transform="translate(3.5593576431274414,203.87695217132568)"/>
<path d="M0 0 C0.33 0 0.66 0 1 0 C1.33 3.3 1.66 6.6 2 10 C2.33 10 2.66 10 3 10 C3.07654536 14.51617599 3.10228696 18.59085217 2 23 C2.33 23 2.66 23 3 23 C3.22142255 24.95689659 3.4267568 26.91561952 3.625 28.875 C3.74101563 29.96554687 3.85703125 31.05609375 3.9765625 32.1796875 C3.98429687 33.11039062 3.99203125 34.04109375 4 35 C3.34 35.66 2.68 36.32 2 37 C0.33514556 43.14619194 1.05388614 47.46130595 4 53 C3.34 53 2.68 53 2 53 C1.97660188 61.55522252 1.95894737 70.11043119 1.94818783 78.66567802 C1.94301808 82.64024885 1.93603098 86.61479744 1.92456055 90.58935547 C1.91161042 95.18196736 1.90412383 99.77455758 1.90234375 104.3671875 C1.90198498 105.10903038 1.90162621 105.85087326 1.90125656 106.61519623 C1.90412113 115.83136816 2.01057901 125.01992687 2.7353363 134.21310425 C3.09073084 138.81853831 3.09073084 138.81853831 2 141 C2.2475 142.8871875 2.2475 142.8871875 2.5 144.8125 C3.28884686 150.9235668 2.61323576 156.89594559 2 163 C2.66 163.33 3.32 163.66 4 164 C3.75636719 165.87558594 3.75636719 165.87558594 3.5078125 167.7890625 C2.89426457 173.32400197 2.85259584 178.81129929 2.875 184.375 C2.87113281 185.35855469 2.86726563 186.34210938 2.86328125 187.35546875 C2.86457031 188.29777344 2.86585937 189.24007812 2.8671875 190.2109375 C2.86831543 191.05962402 2.86944336 191.90831055 2.87060547 192.78271484 C2.91364469 195.17497109 2.91364469 195.17497109 4 198 C3.44140625 200.04296875 3.44140625 200.04296875 2.5625 202.1875 C2.27503906 202.90292969 1.98757812 203.61835938 1.69140625 204.35546875 C1.46324219 204.89816406 1.23507813 205.44085938 1 206 C0.34 206 -0.32 206 -1 206 C-1.02340654 181.35575567 -1.04101718 156.71151301 -1.05181217 132.06725979 C-1.05695868 120.62336797 -1.06396992 109.17948308 -1.07543945 97.7355957 C-1.08543667 87.75593771 -1.09186538 77.77628473 -1.09408849 67.79662186 C-1.09538707 62.51719896 -1.09841858 57.2377904 -1.10573006 51.95837212 C-1.1125699 46.9786731 -1.11460092 41.9989942 -1.11310768 37.01929092 C-1.11338046 35.2017881 -1.11533796 33.38428454 -1.11920547 31.56678581 C-1.14057679 20.99576376 -0.86884633 10.53892913 0 0 Z " fill="#141415" transform="translate(122,245)"/>
<path d="M0 0 C51.48 0 102.96 0 156 0 C157.15142617 43.75419463 157.15142617 43.75419463 157.0625 64.875 C157.05744842 67.06249891 157.0528923 69.24999903 157.04882812 71.4375 C157.03817214 76.62503166 157.02113498 81.8125009 157 87 C156.67 87 156.34 87 156 87 C155.67 150.69 155.34 214.38 155 280 C154.67 280 154.34 280 154 280 C153.97702571 250.52251749 153.95940801 221.04503541 153.94893467 191.56754578 C153.94768445 188.06163207 153.94639008 184.55571837 153.94506836 181.04980469 C153.94467489 180.00316669 153.94467489 180.00316669 153.94427348 178.9353845 C153.9399607 167.74109877 153.93209823 156.54681835 153.9228472 145.35253574 C153.91338688 133.80586643 153.90799319 122.25920016 153.90591151 110.71252716 C153.90462496 104.25237821 153.90167338 97.79224117 153.89426994 91.3320961 C153.88731368 85.21061469 153.8854213 79.0891497 153.88689232 72.96766472 C153.88662454 70.75997642 153.88473871 68.55228738 153.88079453 66.34460258 C153.84386876 44.54453121 154.48076069 22.80805089 155 1 C103.85 1 52.7 1 0 1 C0 0.67 0 0.34 0 0 Z " fill="#938089" transform="translate(1,204)"/>
<path d="M0 0 C2.22800599 3.34200899 2.24290064 4.35659209 2.21289062 8.24902344 C2.20715027 9.8720639 2.20715027 9.8720639 2.20129395 11.52789307 C2.17899719 13.30072662 2.17899719 13.30072662 2.15625 15.109375 C2.14410461 16.96559479 2.14410461 16.96559479 2.13171387 18.85931396 C2.10058442 22.90645664 2.05266162 26.95309746 2 31 C1.98333519 32.36564051 1.96673349 33.73128178 1.95019531 35.09692383 C1.83831129 44.10740863 1.69238063 53.11719844 1.53643799 62.12701416 C1.47438855 65.74219954 1.41506848 69.35742981 1.35546875 72.97265625 C1.23954014 79.98181506 1.12076916 86.99092277 1 94 C0.67 94 0.34 94 0 94 C0 63.97 0 33.94 0 3 C-106.59 3 -213.18 3 -323 3 C-323 2.67 -323 2.34 -323 2 C-322.3307565 1.99826375 -321.661513 1.9965275 -320.97198939 1.99473864 C-281.33213701 1.89177389 -241.69230161 1.78367512 -202.05248164 1.66888306 C-197.29589281 1.65511301 -192.53930387 1.64138599 -187.78271484 1.62768555 C-186.8357392 1.62495724 -185.88876356 1.62222894 -184.91309169 1.61941796 C-169.56750016 1.57530887 -154.22190126 1.53468697 -138.87629685 1.49534739 C-123.13745353 1.45492233 -107.3986239 1.41076468 -91.65980077 1.36312145 C-81.94334314 1.33382688 -72.22688655 1.30746504 -62.51041111 1.28482103 C-55.85298953 1.26902754 -49.19558469 1.24961776 -42.53818169 1.22733159 C-38.69373115 1.2145698 -34.8492935 1.20343374 -31.0048275 1.19658089 C-26.84171096 1.18911849 -22.67865705 1.1740572 -18.51556396 1.15821838 C-17.29378472 1.15724028 -16.07200548 1.15626217 -14.81320262 1.15525442 C-13.70100203 1.14977998 -12.58880144 1.14430554 -11.4428978 1.1386652 C-10.00071998 1.13467814 -10.00071998 1.13467814 -8.52940726 1.13061053 C-5.59350721 0.97901001 -2.91492201 0 0 0 Z " fill="#B8B6B9" transform="translate(362,102)"/>
<path d="M0 0 C0.33 0 0.66 0 1 0 C1 91.41 1 182.82 1 277 C13.21 277 25.42 277 38 277 C33.74971387 279.12514307 30.79963942 279.27630714 26.20703125 279.23046875 C25.46039719 279.23001053 24.71376312 279.22955231 23.94450378 279.2290802 C22.37192183 279.22606682 20.79934262 279.21820793 19.22680664 279.20581055 C16.81060313 279.18748561 14.39478157 279.18530144 11.97851562 279.18554688 C10.4505175 279.18063396 8.92252198 279.17480662 7.39453125 279.16796875 C6.30553276 279.16629951 6.30553276 279.16629951 5.1945343 279.16459656 C0.11607343 279.11607343 0.11607343 279.11607343 -1 278 C-1.10019804 275.11942365 -1.13438441 272.26275085 -1.12698364 269.38166809 C-1.12854363 268.46588555 -1.13010362 267.550103 -1.13171089 266.60656947 C-1.13572659 263.51089038 -1.13252855 260.41525961 -1.12939453 257.31958008 C-1.13074874 255.10838288 -1.13252879 252.89718592 -1.13470459 250.68598938 C-1.13928852 244.64595693 -1.13748232 238.60594145 -1.1343255 232.56590867 C-1.13179266 226.21057989 -1.13414334 219.85525255 -1.13571167 213.49992371 C-1.13765372 202.08864804 -1.13453137 190.67738168 -1.12945233 179.26610758 C-1.12503252 169.02286016 -1.12571875 158.77962414 -1.13037109 148.53637695 C-1.13579374 136.59193196 -1.13767404 124.64749248 -1.13475883 112.70304602 C-1.13322379 106.4015184 -1.13292251 100.09999853 -1.13629532 93.79847145 C-1.15080755 62.51859525 -0.83802611 31.26920242 0 0 Z " fill="#939095" transform="translate(221,214)"/>
<path d="M0 0 C0.33 0 0.66 0 1 0 C1.02527002 6.53278786 1.04283292 13.06556321 1.05493164 19.59838867 C1.05997317 21.82267732 1.06680623 24.04696263 1.07543945 26.27124023 C1.08751298 29.46078309 1.09322996 32.65028229 1.09765625 35.83984375 C1.10281754 36.84087631 1.10797882 37.84190887 1.11329651 38.87327576 C1.11337204 39.79415482 1.11344757 40.71503387 1.11352539 41.66381836 C1.115746 42.47878281 1.11796661 43.29374725 1.12025452 44.13340759 C1 46 1 46 0 47 C-2.91035299 47.08995371 -5.79683129 47.1148966 -8.70727539 47.09765625 C-10.07810272 47.09546585 -10.07810272 47.09546585 -11.47662354 47.0932312 C-13.46936135 47.08941436 -15.46209572 47.08328653 -17.45482063 47.07516479 C-20.6117686 47.06244313 -23.76867472 47.0558955 -26.92564392 47.05102539 C-34.7739781 47.03762369 -42.62227304 47.01351837 -50.47058105 46.98962402 C-57.08792842 46.9698608 -63.70526064 46.95422723 -70.32262993 46.94406128 C-73.42678905 46.93759554 -76.53088619 46.92508216 -79.63502502 46.91235352 C-81.5523371 46.90871816 -83.46964975 46.90536679 -85.38696289 46.90234375 C-86.67394325 46.89459427 -86.67394325 46.89459427 -87.98692322 46.88668823 C-93.08185156 46.88624421 -97.95657403 47.26719781 -103 48 C-103.82132412 52.31560703 -104.13409472 56.40523911 -104.15821838 60.79574585 C-104.16315636 61.45424078 -104.16809434 62.1127357 -104.17318195 62.79118502 C-104.18846232 64.98367175 -104.19689169 67.17612941 -104.20532227 69.36865234 C-104.21490824 70.94587456 -104.22491875 72.52309424 -104.23532104 74.10031128 C-104.26229819 78.37253077 -104.28334657 82.64476122 -104.30332303 86.91701841 C-104.32522705 91.38534245 -104.3525941 95.85363297 -104.37937927 100.32192993 C-104.42924653 108.77904474 -104.47420744 117.23617822 -104.51740164 125.69332945 C-104.56682507 135.32329541 -104.62172424 144.95322772 -104.67708123 154.58316112 C-104.79080964 174.38874271 -104.89766852 194.19435645 -105 214 C-105.33 214 -105.66 214 -106 214 C-106.0233268 192.11279336 -106.0409781 170.22558876 -106.05181217 148.33837223 C-106.0569756 138.176505 -106.06401917 128.01464548 -106.07543945 117.8527832 C-106.08538488 108.99906374 -106.09185309 100.14534986 -106.09408849 91.29162496 C-106.09539584 86.60062465 -106.09848321 81.90964031 -106.10573006 77.2186451 C-106.11248805 72.80860748 -106.11461742 68.39859249 -106.11310768 63.98855019 C-106.11338411 62.36512377 -106.11539054 60.74169664 -106.11920547 59.11827469 C-106.12413928 56.9115495 -106.12299947 54.70491117 -106.12025452 52.4981842 C-106.12117631 51.26021623 -106.1220981 50.02224825 -106.12304783 48.74676609 C-106 46 -106 46 -105 45 C-103.63391674 44.90464787 -102.26294545 44.8781133 -100.89353943 44.87974548 C-100.00867859 44.87837082 -99.12381775 44.87699615 -98.21214294 44.87557983 C-97.23391068 44.87917511 -96.25567841 44.88277039 -95.24780273 44.88647461 C-94.2235318 44.88632858 -93.19926086 44.88618256 -92.14395142 44.8860321 C-88.74047771 44.88673172 -85.33705796 44.89452637 -81.93359375 44.90234375 C-79.58089732 44.90420776 -77.2282005 44.90563174 -74.87550354 44.90663147 C-68.66943295 44.91045801 -62.4633856 44.92028945 -56.25732422 44.93133545 C-49.93001622 44.94154666 -43.60270448 44.94612846 -37.27539062 44.95117188 C-24.85024854 44.9619116 -12.42512983 44.97950949 0 45 C0 30.15 0 15.3 0 0 Z " fill="#575557" transform="translate(362,196)"/>
<path d="M0 0 C70.95 0 141.9 0 215 0 C215 0.33 215 0.66 215 1 C191.66382382 2.01634551 168.35997253 2.13593223 145.00515795 2.10139394 C139.95643284 2.09503185 134.90770677 2.09454665 129.85897827 2.09336853 C120.35078447 2.09029234 110.84260253 2.08213043 101.33441389 2.07201904 C90.4874933 2.06074079 79.64057207 2.05531831 68.79364705 2.05032361 C46.52909148 2.03994355 24.2645465 2.0224181 2 2 C2.00444122 2.55710159 2.00888245 3.11420319 2.01345825 3.68818665 C2.05765735 9.47919147 2.08785214 15.27014849 2.10986328 21.0612793 C2.11992951 23.22340847 2.13358354 25.385524 2.15087891 27.54760742 C2.17509978 30.65286625 2.18647681 33.7579453 2.1953125 36.86328125 C2.20563507 37.83211746 2.21595764 38.80095367 2.22659302 39.79914856 C2.22674408 40.6998558 2.22689514 41.60056305 2.22705078 42.52856445 C2.231492 43.32132278 2.23593323 44.11408112 2.24050903 44.93086243 C2 47 2 47 0 50 C0 33.5 0 17 0 0 Z " fill="#343232" transform="translate(36,42)"/>
<path d="M0 0 C46.53 0 93.06 0 141 0 C139.45294267 3.09411467 137.11928228 3.71558965 134 5 C132.0625 4.75 132.0625 4.75 130 4 C127.67612053 3.60612212 125.34206251 3.26513915 123 3 C122.67 3.33 122.34 3.66 122 4 C120.26730015 3.9110512 118.53794774 3.75585233 116.8125 3.57421875 C109.86519134 2.93525568 102.97326436 2.81634414 96 2.8125 C94.79988281 2.80025391 93.59976563 2.78800781 92.36328125 2.77539062 C90.63658203 2.77249023 90.63658203 2.77249023 88.875 2.76953125 C87.84117187 2.76542236 86.80734375 2.76131348 85.7421875 2.75708008 C82.94230646 3.00511085 81.44465764 3.70812599 79 5 C76.35761754 4.98313373 73.86809437 4.87245693 71.25 4.625 C70.20392578 4.53992188 70.20392578 4.53992188 69.13671875 4.453125 C67.42360688 4.31232128 65.71165389 4.15754028 64 4 C64 3.34 64 2.68 64 2 C62.68 1.67 61.36 1.34 60 1 C60.495 2.98 60.495 2.98 61 5 C58.03 4.67 55.06 4.34 52 4 C52 3.34 52 2.68 52 2 C48.37515001 1.91318524 44.75056557 1.85967279 41.125 1.8125 C40.09246094 1.78736328 39.05992187 1.76222656 37.99609375 1.73632812 C37.00996094 1.72666016 36.02382812 1.71699219 35.0078125 1.70703125 C34.09660645 1.6913208 33.18540039 1.67561035 32.24658203 1.65942383 C31.13452393 1.82800903 31.13452393 1.82800903 30 2 C29.01 3.485 29.01 3.485 28 5 C27.34 5 26.68 5 26 5 C26.33 3.68 26.66 2.36 27 1 C25.53820312 1.24169922 25.53820312 1.24169922 24.046875 1.48828125 C19.77514951 2.09591592 15.55926972 2.18373973 11.25 2.1875 C10.49589844 2.19974609 9.74179688 2.21199219 8.96484375 2.22460938 C5.10826318 2.23488446 3.28296616 2.18864411 0 0 Z " fill="#2D262F" transform="translate(203,105)"/>
<path d="M0 0 C0.33 0 0.66 0 1 0 C1.33 3.3 1.66 6.6 2 10 C2.33 10 2.66 10 3 10 C3.07654536 14.51617599 3.10228696 18.59085217 2 23 C2.33 23 2.66 23 3 23 C3.22142255 24.95689659 3.4267568 26.91561952 3.625 28.875 C3.74101563 29.96554687 3.85703125 31.05609375 3.9765625 32.1796875 C3.98429687 33.11039062 3.99203125 34.04109375 4 35 C3.34 35.66 2.68 36.32 2 37 C1.09705619 41.67978506 0.86761529 46.23484092 0.84178162 50.9919281 C0.83684364 51.65944456 0.83190566 52.32696101 0.82681805 53.01470524 C0.81156787 55.23172502 0.80311666 57.44871614 0.79467773 59.66577148 C0.78508937 61.26284534 0.77507874 62.8599167 0.76467896 64.45698547 C0.73772763 68.7787312 0.71666538 73.10048775 0.69667697 77.42227054 C0.67475689 81.94397353 0.64739775 86.46564357 0.62062073 90.98731995 C0.57077508 99.54356646 0.52580621 108.09983135 0.48259836 116.65611368 C0.43315638 126.39976414 0.37826414 136.14338153 0.32291877 145.88699996 C0.20922355 165.9246358 0.10235754 185.96230325 0 206 C-0.33 206 -0.66 206 -1 206 C-1.02340654 181.35575567 -1.04101718 156.71151301 -1.05181217 132.06725979 C-1.05695868 120.62336797 -1.06396992 109.17948308 -1.07543945 97.7355957 C-1.08543667 87.75593771 -1.09186538 77.77628473 -1.09408849 67.79662186 C-1.09538707 62.51719896 -1.09841858 57.2377904 -1.10573006 51.95837212 C-1.1125699 46.9786731 -1.11460092 41.9989942 -1.11310768 37.01929092 C-1.11338046 35.2017881 -1.11533796 33.38428454 -1.11920547 31.56678581 C-1.14057679 20.99576376 -0.86884633 10.53892913 0 0 Z " fill="#201A1C" transform="translate(122,245)"/>
<path d="M0 0 C0.33 0 0.66 0 1 0 C1.00634791 1.35008935 1.00634791 1.35008935 1.01282406 2.72745323 C1.11600888 24.60095742 1.22462819 46.4744287 1.33933926 68.3478756 C1.39468019 78.92559059 1.4481636 89.50330896 1.49731445 100.08105469 C1.54014564 109.29774288 1.58642092 118.51440614 1.63687855 127.73105586 C1.66348808 132.61378043 1.68834136 137.49650003 1.70907402 142.37925339 C1.72862412 146.97070953 1.75276299 151.5621182 1.78049088 156.15353203 C1.78986994 157.84264325 1.79754213 159.53176491 1.80341911 161.22089195 C1.81166579 163.51925183 1.82593831 165.81749603 1.84178162 168.11581421 C1.84823417 169.4044808 1.85468672 170.69314739 1.8613348 172.02086449 C1.79503565 174.92769084 1.79503565 174.92769084 3 177 C3.13415472 179.6723621 3.04318541 182.32250488 3 185 C1.68 185 0.36 185 -1 185 C-1.03269568 174.97918071 -1.0516398 164.95836389 -1.0625 154.9375 C-1.06335602 154.15360146 -1.06421204 153.36970291 -1.06509399 152.56204987 C-1.09753166 118.66457872 -0.82077989 84.77074165 -0.5 50.875 C-0.48804218 49.61102764 -0.47608437 48.34705528 -0.46376419 47.04478073 C-0.31488285 31.36312944 -0.16020626 15.68153954 0 0 Z " fill="#211B1E" transform="translate(2,306)"/>
<path d="M0 0 C1.15641747 0.00303635 1.15641747 0.00303635 2.3361969 0.00613403 C3.14428299 0.00438171 3.95236908 0.00262939 4.78494263 0.00082397 C7.46936662 -0.0035952 10.1537253 -0.00065633 12.83815002 0.00271606 C14.69520582 0.00204304 16.55226153 0.00107303 18.40931702 -0.00018311 C22.30666439 -0.00166017 26.20398889 0.00049474 30.10133362 0.00515747 C35.10874502 0.01085476 40.11610283 0.0075758 45.12351227 0.00158501 C48.95979723 -0.00202038 52.7960694 -0.00088212 56.63235474 0.0017128 C58.47922777 0.00238213 60.32610194 0.00155344 62.17297363 -0.00076675 C64.74954835 -0.00329292 67.32603503 0.00054679 69.90260315 0.00613403 C70.67354813 0.0041098 71.4444931 0.00208557 72.23880005 0 C77.50513747 0.02126601 77.50513747 0.02126601 78.61940002 1.13552856 C78.69259624 3.8320771 78.7118254 6.50244314 78.68190002 9.19802856 C78.67738831 9.95664185 78.67287659 10.71525513 78.66822815 11.49685669 C78.65640682 13.37644728 78.6384708 15.25599755 78.61940002 17.13552856 C78.28940002 17.13552856 77.95940002 17.13552856 77.61940002 17.13552856 C77.61940002 12.18552856 77.61940002 7.23552856 77.61940002 2.13552856 C50.88940002 2.13552856 24.15940002 2.13552856 -3.38059998 2.13552856 C-4.37059998 16.98552856 -4.37059998 16.98552856 -5.38059998 32.13552856 C-5.71059998 32.13552856 -6.04059998 32.13552856 -6.38059998 32.13552856 C-6.40525501 27.73896684 -6.4234384 23.34244136 -6.43553162 18.9458313 C-6.44057118 17.44907938 -6.44740285 15.95233241 -6.45603943 14.45559692 C-6.46812156 12.30853049 -6.47383189 10.16152894 -6.47825623 8.01443481 C-6.48349304 6.72094116 -6.48872986 5.42744751 -6.49412537 4.09475708 C-6.30292141 -0.88929261 -4.49303974 0.01814335 0 0 Z " fill="#474646" transform="translate(42.38059997558594,240.86447143554688)"/>
<path d="M0 0 C0.33 0 0.66 0 1 0 C1 37.95 1 75.9 1 115 C13.21 115 25.42 115 38 115 C33.74971387 117.12514307 30.79963942 117.27630714 26.20703125 117.23046875 C25.46039719 117.23001053 24.71376312 117.22955231 23.94450378 117.2290802 C22.37192183 117.22606682 20.79934262 117.21820793 19.22680664 117.20581055 C16.81060313 117.18748561 14.39478157 117.18530144 11.97851562 117.18554688 C10.4505175 117.18063396 8.92252198 117.17480662 7.39453125 117.16796875 C6.30553276 117.16629951 6.30553276 117.16629951 5.1945343 117.16459656 C0.11607343 117.11607343 0.11607343 117.11607343 -1 116 C-1.09548778 113.91744279 -1.11883541 111.83156823 -1.11523438 109.74682617 C-1.1152092 109.08824678 -1.11518402 108.4296674 -1.11515808 107.75113106 C-1.11331743 105.53586665 -1.10373625 103.32071047 -1.09375 101.10546875 C-1.08995511 99.53256775 -1.08633742 97.95966632 -1.08288574 96.38676453 C-1.02915116 77.93949638 -0.7841261 59.49369747 -0.53643799 41.04821777 C-0.4744401 36.3934949 -0.41508925 31.7387382 -0.35546875 27.08398438 C-0.23946638 18.05595606 -0.12070084 9.02796665 0 0 Z " fill="#575358" transform="translate(221,376)"/>
<path d="M0 0 C1.62580966 0.11398665 3.25067157 0.24155659 4.875 0.375 C5.77992188 0.44460937 6.68484375 0.51421875 7.6171875 0.5859375 C10 1 10 1 12 3 C9.36 2.67 6.72 2.34 4 2 C4 2.66 4 3.32 4 4 C5.423125 4.185625 5.423125 4.185625 6.875 4.375 C11.62254802 5.04765054 16.30640153 6.02728241 21 7 C18.36 6.01 15.72 5.02 13 4 C17.29594807 2.92601298 18.36551411 3.16968118 22.39453125 4.546875 C23.43287109 4.8975 24.47121094 5.248125 25.54101562 5.609375 C26.62060547 5.98578125 27.70019531 6.3621875 28.8125 6.75 C29.88048828 7.1109375 30.94847656 7.471875 32.04882812 7.84375 C37.46892794 9.69402526 42.77837744 11.646173 48 14 C47.34 15.65 46.68 17.3 46 19 C45.505 18.01 45.505 18.01 45 17 C43.34817245 16.59955696 41.67557379 16.28520405 40 16 C37.32591525 15.36119087 34.66467156 14.67745887 32 14 C32 13.34 32 12.68 32 12 C31.195625 12.061875 30.39125 12.12375 29.5625 12.1875 C25.74974612 11.98682874 22.92706839 11.0694917 19.3671875 9.79296875 C16.30744439 8.7680053 13.21888 8.12475559 10.0625 7.47265625 C8 7 8 7 4.8125 5.875 C2.02342936 4.85456117 2.02342936 4.85456117 -0.9375 5 C-4.66717793 5 -7.45793058 4.13346221 -11 3 C-11 2.67 -11 2.34 -11 2 C-6.71 2 -2.42 2 2 2 C1.34 1.34 0.68 0.68 0 0 Z " fill="#3E3A37" transform="translate(291,42)"/>
<path d="M0 0 C-0.33 0.99 -0.66 1.98 -1 3 C-0.34 3 0.32 3 1 3 C1.33 2.01 1.66 1.02 2 0 C2 0.66 2 1.32 2 2 C3.32 2.33 4.64 2.66 6 3 C-0.77143173 6.04023465 -7.55805214 7.93622478 -14.8046875 9.49609375 C-16.76289963 9.9455766 -18.69697524 10.4973893 -20.625 11.0625 C-24.07945775 12.0220716 -27.45113684 12.52226842 -31 13 C-31.99 13.33 -32.98 13.66 -34 14 C-34 13.34 -34 12.68 -34 12 C-32.35 11.67 -30.7 11.34 -29 11 C-29 10.34 -29 9.68 -29 9 C-28.01 9 -27.02 9 -26 9 C-27.32 8.34 -28.64 7.68 -30 7 C-7.15380044 -0.25919567 -7.15380044 -0.25919567 0 0 Z " fill="#444240" transform="translate(331,475)"/>
<path d="M0 0 C38.28 0 76.56 0 116 0 C116 0.33 116 0.66 116 1 C59.57 1.495 59.57 1.495 2 2 C2 16.85 2 31.7 2 47 C1.34 47.99 0.68 48.98 0 50 C0 33.5 0 17 0 0 Z " fill="#908D8B" transform="translate(36,42)"/>
<path d="M0 0 C0.33 0 0.66 0 1 0 C1 54.45 1 108.9 1 165 C0.67 165 0.34 165 0 165 C-0.00423194 164.23485927 -0.00846388 163.46971853 -0.01282406 162.68139172 C-0.1160501 144.07885051 -0.22467574 125.47634804 -0.33933926 106.87387371 C-0.39465852 97.87792452 -0.44813841 88.88197137 -0.49731445 79.88598633 C-0.54017215 72.04669151 -0.58645418 64.20742574 -0.63687855 56.3681758 C-0.66346669 52.21592072 -0.68831947 48.06367135 -0.70907402 43.91138268 C-0.72865216 40.0052663 -0.7527995 36.09920515 -0.78049088 32.19313812 C-0.78985506 30.75761988 -0.79753262 29.32208952 -0.80341911 27.88655281 C-0.8116909 25.93013749 -0.82655655 23.97375333 -0.84178162 22.01737976 C-0.84823417 20.9213679 -0.85468672 19.82535604 -0.8613348 18.69613171 C-0.88478439 15.9005087 -0.88478439 15.9005087 -2 13 C-1.67 12.67 -1.34 12.34 -1 12 C-0.76572222 9.98405418 -0.58663876 7.961526 -0.4375 5.9375 C-0.35371094 4.83277344 -0.26992187 3.72804687 -0.18359375 2.58984375 C-0.12300781 1.73519531 -0.06242188 0.88054687 0 0 Z " fill="#1B1514" transform="translate(255,252)"/>
<path d="M0 0 C-1.54705733 3.09411467 -3.88071772 3.71558965 -7 5 C-8.9375 4.75 -8.9375 4.75 -11 4 C-13.32387947 3.60612212 -15.65793749 3.26513915 -18 3 C-18.33 3.33 -18.66 3.66 -19 4 C-20.73269985 3.9110512 -22.46205226 3.75585233 -24.1875 3.57421875 C-31.13480866 2.93525568 -38.02673564 2.81634414 -45 2.8125 C-46.20011719 2.80025391 -47.40023438 2.78800781 -48.63671875 2.77539062 C-49.78785156 2.77345703 -50.93898438 2.77152344 -52.125 2.76953125 C-53.15882813 2.76542236 -54.19265625 2.76131348 -55.2578125 2.75708008 C-58.05769354 3.00511085 -59.55534236 3.70812599 -62 5 C-64.64238246 4.98313373 -67.13190563 4.87245693 -69.75 4.625 C-70.79607422 4.53992188 -70.79607422 4.53992188 -71.86328125 4.453125 C-73.57639312 4.31232128 -75.28834611 4.15754028 -77 4 C-77 3.34 -77 2.68 -77 2 C-77.66 1.67 -78.32 1.34 -79 1 C-70.17623707 0.8687477 -61.35246273 0.7382985 -52.52867317 0.60884857 C-48.43056793 0.54870239 -44.33246699 0.48828915 -40.234375 0.42724609 C-36.27270295 0.36824523 -32.3110208 0.30997133 -28.3493309 0.25218201 C-26.8448232 0.23011167 -25.3403192 0.20778812 -23.83581924 0.18519592 C-15.89003563 0.0660477 -7.94685181 -0.02719197 0 0 Z " fill="#161519" transform="translate(344,105)"/>
<path d="M0 0 C18.81 0 37.62 0 57 0 C56.01 0.33 55.02 0.66 54 1 C54 1.66 54 2.32 54 3 C51.07150108 3.97616631 49.26103494 4.1042705 46.21875 4.0625 C45.29449219 4.05476563 44.37023437 4.04703125 43.41796875 4.0390625 C41.47265625 4.01302083 39.52734375 3.98697917 37.58203125 3.9609375 C36.65777344 3.95320313 35.73351562 3.94546875 34.78125 3.9375 C33.93626953 3.92589844 33.09128906 3.91429688 32.22070312 3.90234375 C29.82492593 3.90600023 29.82492593 3.90600023 27 5 C27.33 3.68 27.66 2.36 28 1 C26.6696875 1.2784375 26.6696875 1.2784375 25.3125 1.5625 C19.55905036 2.41838507 13.75242941 1.56226754 8 1 C8 1.66 8 2.32 8 3 C6.35 3.33 4.7 3.66 3 4 C2.01 2.68 1.02 1.36 0 0 Z " fill="#100F12" transform="translate(100,106)"/>
<path d="M0 0 C13.2 0 26.4 0 40 0 C39.67 0.99 39.34 1.98 39 3 C34.20004797 3.77800681 29.61437936 4.11851665 24.75390625 4.09765625 C24.09792953 4.0962413 23.44195282 4.09482635 22.76609802 4.09336853 C20.69818298 4.08783031 18.63038158 4.07529002 16.5625 4.0625 C15.14909012 4.05747699 13.73567852 4.0529155 12.32226562 4.04882812 C8.88147432 4.03788126 5.44074828 4.02066038 2 4 C1.34 2.68 0.68 1.36 0 0 Z " fill="#161619" transform="translate(163,106)"/>
<path d="M0 0 C0.33 0 0.66 0 1 0 C1.86032949 10.67021952 2.12737806 21.23751657 2.0625 31.9375 C2.057465 33.41080574 2.0529057 34.88411318 2.04882812 36.35742188 C2.03800377 39.9049844 2.02085455 43.45248052 2 47 C-0.31 47 -2.62 47 -5 47 C-4.34 46.01 -3.68 45.02 -3 44 C-2.72395387 41.10293858 -2.53568747 38.27751737 -2.4375 35.375 C-2.12053951 27.12053951 -2.12053951 27.12053951 -1 26 C-0.84193469 24.07521187 -0.748865 22.1450079 -0.68359375 20.21484375 C-0.64169922 19.04501953 -0.59980469 17.87519531 -0.55664062 16.66992188 C-0.49766602 14.82237305 -0.49766602 14.82237305 -0.4375 12.9375 C-0.37272461 11.08415039 -0.37272461 11.08415039 -0.30664062 9.19335938 C-0.20015802 6.12902665 -0.09814576 3.06460927 0 0 Z " fill="#1B191A" transform="translate(360,194)"/>
<path d="M0 0 C3.4375 0.8125 3.4375 0.8125 7 2 C7.33 2.99 7.66 3.98 8 5 C8.99 5 9.98 5 11 5 C11 5.66 11 6.32 11 7 C11.598125 7.0825 12.19625 7.165 12.8125 7.25 C15.66966952 8.22960098 16.28835952 9.53523771 18 12 C18.86625 12.825 19.7325 13.65 20.625 14.5 C22.86182979 16.85455767 23.65066621 17.85599589 24 21 C21.69 19.68 19.38 18.36 17 17 C17 16.34 17 15.68 17 15 C16.34 15 15.68 15 15 15 C15 14.34 15 13.68 15 13 C13.68 12.67 12.36 12.34 11 12 C11 11.34 11 10.68 11 10 C9.02 9.34 7.04 8.68 5 8 C5 7.34 5 6.68 5 6 C2.525 5.01 2.525 5.01 0 4 C0 2.66666667 0 1.33333333 0 0 Z " fill="#3A3537" transform="translate(368,74)"/>
<path d="M0 0 C-2.20895192 2.46060467 -4.21042098 3.72465216 -7.25 5 C-8.04535156 5.33644531 -8.84070313 5.67289062 -9.66015625 6.01953125 C-10.81837891 6.50486328 -10.81837891 6.50486328 -12 7 C-12.63808594 7.29261719 -13.27617187 7.58523438 -13.93359375 7.88671875 C-17.62687056 9.57295872 -21.01874589 10.33645765 -25 11 C-25.33 11.66 -25.66 12.32 -26 13 C-26.66 12.67 -27.32 12.34 -28 12 C-27.67 10.02 -27.34 8.04 -27 6 C-20.50023898 3.28024184 -15.95047184 2.78642555 -9 4 C-8.67 3.01 -8.34 2.02 -8 1 C-5.29120665 -0.35439668 -2.99066732 -0.06501451 0 0 Z " fill="#4A4844" transform="translate(365,465)"/>
<path d="M0 0 C-0.33 0.99 -0.66 1.98 -1 3 C-0.34 3 0.32 3 1 3 C1.33 2.01 1.66 1.02 2 0 C2 0.66 2 1.32 2 2 C3.32 2.33 4.64 2.66 6 3 C-3.84804976 7.35586816 -3.84804976 7.35586816 -9.1875 6.5 C-13.9818716 5.87083828 -18.22249411 6.31749916 -23 7 C-21.57870597 4.15741195 -19.96537459 4.02964396 -17 3 C-15.0098835 2.42307793 -13.00897482 1.88236864 -11 1.375 C-9.4840625 0.98441406 -9.4840625 0.98441406 -7.9375 0.5859375 C-5.19547026 0.03899008 -2.78497886 -0.11262782 0 0 Z " fill="#3D3C39" transform="translate(331,475)"/>
<path d="M0 0 C0.33 0 0.66 0 1 0 C1 6.6 1 13.2 1 20 C13.21 20 25.42 20 38 20 C33.73189078 22.13405461 30.78172107 22.26112342 26.171875 22.1953125 C25.04836639 22.19106766 25.04836639 22.19106766 23.90216064 22.18673706 C21.51794224 22.1755726 19.13410421 22.15047531 16.75 22.125 C15.13021377 22.11496535 13.51042164 22.10584035 11.890625 22.09765625 C7.92693754 22.07564555 3.96353319 22.04114175 0 22 C-1.22625047 19.54749907 -1.03425355 18.15689565 -0.87890625 15.4296875 C-0.83056641 14.53378906 -0.78222656 13.63789063 -0.73242188 12.71484375 C-0.67634766 11.77769531 -0.62027344 10.84054687 -0.5625 9.875 C-0.51029297 8.93011719 -0.45808594 7.98523438 -0.40429688 7.01171875 C-0.27443239 4.6741581 -0.1394613 2.33700455 0 0 Z " fill="#A8A4A5" transform="translate(221,471)"/>
<path d="M0 0 C1.39120471 0.00015906 2.78241534 0.00585033 4.17358398 0.01586914 C4.90463852 0.01728409 5.63569305 0.01869904 6.38890076 0.02015686 C8.73253406 0.02577131 11.07607313 0.03832617 13.41967773 0.05102539 C15.00496282 0.05603853 16.59024939 0.06060176 18.17553711 0.06469727 C22.06945383 0.07574542 25.96329979 0.09301967 29.85717773 0.11352539 C29.85717773 0.44352539 29.85717773 0.77352539 29.85717773 1.11352539 C14.51217773 1.60852539 14.51217773 1.60852539 -1.14282227 2.11352539 C-2.13282227 16.96352539 -2.13282227 16.96352539 -3.14282227 32.11352539 C-3.47282227 32.11352539 -3.80282227 32.11352539 -4.14282227 32.11352539 C-4.1674773 27.71696366 -4.18566069 23.32043819 -4.19775391 18.92382812 C-4.20279347 17.42707621 -4.20962514 15.93032923 -4.21826172 14.43359375 C-4.23034385 12.28652732 -4.23605418 10.13952577 -4.24047852 7.99243164 C-4.24571533 6.69893799 -4.25095215 5.40544434 -4.25634766 4.07275391 C-4.10579354 0.14830995 -4.10579354 0.14830995 0 0 Z " fill="#A29D9E" transform="translate(40.142822265625,240.886474609375)"/>
<path d="M0 0 C0.33 0 0.66 0 1 0 C2.36257843 14.30707354 2.09768292 28.64361609 2 43 C5.63 43.33 9.26 43.66 13 44 C13 44.33 13 44.66 13 45 C11.02145742 45.19397476 9.0421352 45.38001321 7.0625 45.5625 C5.40927734 45.71912109 5.40927734 45.71912109 3.72265625 45.87890625 C2.37494141 45.93884766 2.37494141 45.93884766 1 46 C0 45 0 45 -0.12025452 43.17137146 C-0.11803391 42.37417191 -0.11581329 41.57697235 -0.11352539 40.75561523 C-0.11344986 39.85475693 -0.11337433 38.95389862 -0.11329651 38.02574158 C-0.10813522 37.04658279 -0.10297394 36.06742401 -0.09765625 35.05859375 C-0.0962413 34.06118668 -0.09482635 33.0637796 -0.09336853 32.03614807 C-0.08775114 28.83656876 -0.07519571 25.63705831 -0.0625 22.4375 C-0.05748724 20.27408955 -0.05292395 18.11067801 -0.04882812 15.94726562 C-0.03777607 10.63148675 -0.02102104 5.31574829 0 0 Z " fill="#A1A3A9" transform="translate(257,410)"/>
<path d="M0 0 C18.81 0 37.62 0 57 0 C57 0.33 57 0.66 57 1 C54.23062417 1.52992381 51.45996921 2.0492458 48.6875 2.5625 C47.90181641 2.71396484 47.11613281 2.86542969 46.30664062 3.02148438 C45.54931641 3.16005859 44.79199219 3.29863281 44.01171875 3.44140625 C42.96697388 3.63778687 42.96697388 3.63778687 41.90112305 3.83813477 C40 4 40 4 37 3 C37 2.34 37 1.68 37 1 C36.09233887 1.03552979 35.18467773 1.07105957 34.24951172 1.10766602 C30.86147599 1.23737542 27.47332914 1.36159658 24.08496094 1.48217773 C22.62231505 1.53533842 21.15974545 1.59064511 19.69726562 1.64819336 C17.58740686 1.73083429 15.47738849 1.8055913 13.3671875 1.87890625 C11.46622314 1.94960327 11.46622314 1.94960327 9.52685547 2.02172852 C6.22269964 2.00137202 3.2339673 1.6463582 0 1 C0 0.67 0 0.34 0 0 Z " fill="#1A181C" transform="translate(233,206)"/>
<path d="M0 0 C7.08411622 -0.05058526 14.16818612 -0.08568494 21.25244141 -0.10986328 C23.66391744 -0.11993954 26.07538122 -0.13360081 28.48681641 -0.15087891 C31.94697085 -0.1750559 35.4069642 -0.18646669 38.8671875 -0.1953125 C39.95055389 -0.20563507 41.03392029 -0.21595764 42.15011597 -0.22659302 C43.1510025 -0.22674408 44.15188904 -0.22689514 45.18310547 -0.22705078 C46.06690887 -0.231492 46.95071228 -0.23593323 47.86129761 -0.24050903 C50 0 50 0 52 2 C51.01604248 1.97643433 51.01604248 1.97643433 50.01220703 1.95239258 C47.04989184 1.89016348 44.0877139 1.85104832 41.125 1.8125 C40.09246094 1.78736328 39.05992187 1.76222656 37.99609375 1.73632812 C37.00996094 1.72666016 36.02382812 1.71699219 35.0078125 1.70703125 C34.09660645 1.6913208 33.18540039 1.67561035 32.24658203 1.65942383 C31.13452393 1.82800903 31.13452393 1.82800903 30 2 C29.01 3.485 29.01 3.485 28 5 C27.34 5 26.68 5 26 5 C26.33 3.68 26.66 2.36 27 1 C25.53820312 1.24169922 25.53820312 1.24169922 24.046875 1.48828125 C19.77514951 2.09591592 15.55926972 2.18373973 11.25 2.1875 C10.49589844 2.19974609 9.74179688 2.21199219 8.96484375 2.22460938 C5.10826318 2.23488446 3.28296616 2.18864411 0 0 Z " fill="#201D23" transform="translate(203,105)"/>
<path d="M0 0 C14.52 0 29.04 0 44 0 C44 0.33 44 0.66 44 1 C42.85660156 1.06058594 41.71320313 1.12117188 40.53515625 1.18359375 C39.04425695 1.26798428 37.55337225 1.35263302 36.0625 1.4375 C34.93038086 1.49647461 34.93038086 1.49647461 33.77539062 1.55664062 C30.08055813 1.44038024 30.08055813 1.44038024 27 3 C25.16884117 3.09851171 23.33380067 3.12972629 21.5 3.125 C20.4996875 3.12757812 19.499375 3.13015625 18.46875 3.1328125 C16 3 16 3 15 2 C10.34911285 1.69476038 10.34911285 1.69476038 6 3 C3.98072489 2.39421747 1.97746603 1.73080266 0 1 C0 0.67 0 0.34 0 0 Z " fill="#18171A" transform="translate(40,106)"/>
<path d="M0 0 C1.62580966 0.11398665 3.25067157 0.24155659 4.875 0.375 C5.77992188 0.44460937 6.68484375 0.51421875 7.6171875 0.5859375 C10 1 10 1 12 3 C9.36 2.67 6.72 2.34 4 2 C4 2.66 4 3.32 4 4 C4.969375 4.12375 5.93875 4.2475 6.9375 4.375 C11.34815777 4.99863809 15.66477759 5.98746506 20 7 C20 7.99 20 8.98 20 10 C19.030625 9.71125 18.06125 9.4225 17.0625 9.125 C11.77415691 7.61557414 6.42465673 6.40410945 1 5.5 C-3.03708177 4.82715304 -7.01137431 3.9129521 -11 3 C-11 2.67 -11 2.34 -11 2 C-6.71 2 -2.42 2 2 2 C1.34 1.34 0.68 0.68 0 0 Z " fill="#5F5757" transform="translate(291,42)"/>
<path d="M0 0 C17.16 0 34.32 0 52 0 C52 0.33 52 0.66 52 1 C50.15438477 1.03758423 50.15438477 1.03758423 48.27148438 1.07592773 C43.67926738 1.17054447 39.08718266 1.27062976 34.49511719 1.37231445 C32.51272693 1.41545907 30.53030439 1.45714732 28.54785156 1.49731445 C25.68805235 1.5555164 22.82841258 1.6190634 19.96875 1.68359375 C18.65263733 1.70866249 18.65263733 1.70866249 17.30993652 1.73423767 C12.13820859 1.85699772 7.12253916 2.27154175 2 3 C1.67 4.98 1.34 6.96 1 9 C0.67 9 0.34 9 0 9 C0 6.03 0 3.06 0 0 Z " fill="#A5A4A1" transform="translate(257,241)"/>
<path d="M0 0 C0.33 0.66 0.66 1.32 1 2 C6.94 1.67 12.88 1.34 19 1 C18.67 1.66 18.34 2.32 18 3 C13.63199421 4.04000138 9.46737216 4 5 4 C3.948125 4.185625 2.89625 4.37125 1.8125 4.5625 C-3.53325348 5.17594712 -8.66641503 4.56926605 -14 4 C-14 3.67 -14 3.34 -14 3 C-7.07 1.515 -7.07 1.515 0 0 Z " fill="#767272" transform="translate(274,487)"/>
<path d="M0 0 C8.58 0 17.16 0 26 0 C26 0.66 26 1.32 26 2 C23.07150108 2.97616631 21.26103494 3.1042705 18.21875 3.0625 C17.29449219 3.05476563 16.37023437 3.04703125 15.41796875 3.0390625 C13.47265625 3.01302083 11.52734375 2.98697917 9.58203125 2.9609375 C8.65777344 2.95320313 7.73351562 2.94546875 6.78125 2.9375 C5.93626953 2.92589844 5.09128906 2.91429688 4.22070312 2.90234375 C1.82492593 2.90600023 1.82492593 2.90600023 -1 4 C-0.67 2.68 -0.34 1.36 0 0 Z " fill="#19191B" transform="translate(128,107)"/>
<path d="M0 0 C0.66 0 1.32 0 2 0 C3.97676257 10.20138745 4.24493565 19.96522153 4.125 30.3125 C4.11493778 31.84309302 4.10581773 33.37369254 4.09765625 34.90429688 C4.07592788 38.6030027 4.04158181 42.30145769 4 46 C3.67 46 3.34 46 3 46 C2.97494385 45.1529248 2.9498877 44.30584961 2.92407227 43.43310547 C2.82852143 40.26844442 2.72931434 37.10392437 2.62768555 33.93945312 C2.58456912 32.57393824 2.54287932 31.20837748 2.50268555 29.84277344 C2.44441446 27.8716281 2.38046264 25.90065332 2.31640625 23.9296875 C2.27974854 22.74616699 2.24309082 21.56264648 2.20532227 20.34326172 C2.01001939 17.16314562 1.55120547 14.13461331 1 11 C1 9.33333333 1 7.66666667 1 6 C0.6937566 4.66018514 0.36548445 3.32488113 0 2 C0 1.34 0 0.68 0 0 Z " fill="#837B7E" transform="translate(458,217)"/>
<path d="M0 0 C0.33 0 0.66 0 1 0 C2.0752037 14.74565074 2.0752037 14.74565074 2 19.8125 C1.76241778 22.89751355 1.76241778 22.89751355 3 25 C3.13415472 27.6723621 3.04318541 30.32250488 3 33 C1.68 33 0.36 33 -1 33 C-0.67 22.11 -0.34 11.22 0 0 Z " fill="#151415" transform="translate(2,458)"/>
<path d="M0 0 C6.08437738 -0.25769128 12.02367875 0.11446498 18.0625 0.875 C19.35285156 1.03742187 20.64320313 1.19984375 21.97265625 1.3671875 C23.47119141 1.68042969 23.47119141 1.68042969 25 2 C25.33 2.66 25.66 3.32 26 4 C16.97736473 3.50804657 7.98382735 2.99820304 -1 2 C-0.67 1.34 -0.34 0.68 0 0 Z " fill="#211C1C" transform="translate(268,41)"/>
<path d="M0 0 C-0.66 1.65 -1.32 3.3 -2 5 C-2.33 4.34 -2.66 3.68 -3 3 C-4.65182755 2.59955696 -6.32442621 2.28520405 -8 2 C-10.67408475 1.36119087 -13.33532844 0.67745887 -16 0 C-16 -0.66 -16 -1.32 -16 -2 C-10.5532597 -3.96082651 -5.08590626 -2.31177557 0 0 Z " fill="#4C4747" transform="translate(339,56)"/>
<path d="M0 0 C7.92 0 15.84 0 24 0 C24 0.66 24 1.32 24 2 C20.4201548 2.81862159 17.10762899 3.13520898 13.4375 3.125 C12.04337891 3.12886719 12.04337891 3.12886719 10.62109375 3.1328125 C6.35758031 2.91677754 3.8808161 1.94040805 0 0 Z " fill="#121014" transform="translate(128,206)"/>
<path d="M0 0 C0.66 0.33 1.32 0.66 2 1 C2.556875 1.103125 3.11375 1.20625 3.6875 1.3125 C5.95164538 1.9856243 7.54713842 2.85498378 9.5625 4.0625 C12.77792218 6.24550653 12.77792218 6.24550653 16 6 C16.33 7.65 16.66 9.3 17 11 C14.525 10.505 14.525 10.505 12 10 C12 9.34 12 8.68 12 8 C10.6696875 7.566875 10.6696875 7.566875 9.3125 7.125 C6.49512184 6.16815459 3.75591676 5.11726355 1 4 C0.01 3.67 -0.98 3.34 -2 3 C-2 2.34 -2 1.68 -2 1 C-1.34 0.67 -0.68 0.34 0 0 Z " fill="#5F5B5C" transform="translate(340,59)"/>
<path d="M0 0 C0.66 0 1.32 0 2 0 C2 0.66 2 1.32 2 2 C2.72703125 2.07734375 3.4540625 2.1546875 4.203125 2.234375 C7.7002176 3.19167968 9.21609282 4.68208064 11.75 7.25 C12.52859375 8.01828125 13.3071875 8.7865625 14.109375 9.578125 C16.11814634 12.15134448 16.65869587 13.79174119 17 17 C12.97128826 15.65709609 12.32461631 13.48692446 10 10 C8.37064759 8.62131719 6.70250393 7.28725907 5 6 C3.2958946 4.37163262 1.61974559 2.71230248 0 1 C0 0.67 0 0.34 0 0 Z " fill="#665B63" transform="translate(392,95)"/>
<path d="M0 0 C0.33 0 0.66 0 1 0 C1 8.25 1 16.5 1 25 C0.34 25 -0.32 25 -1 25 C-1.19441368 22.7089095 -1.38033135 20.41709663 -1.5625 18.125 C-1.66691406 16.84882813 -1.77132812 15.57265625 -1.87890625 14.2578125 C-2 11 -2 11 -1 9 C-0.77532169 7.46331135 -0.59203195 5.92031946 -0.4375 4.375 C-0.35371094 3.55773437 -0.26992187 2.74046875 -0.18359375 1.8984375 C-0.12300781 1.27195312 -0.06242188 0.64546875 0 0 Z " fill="#181617" transform="translate(154,465)"/>
<path d="M0 0 C10.23 0 20.46 0 31 0 C28.31907309 2.68092691 26.60832637 2.38670257 22.875 2.625 C21.77929688 2.69976562 20.68359375 2.77453125 19.5546875 2.8515625 C18.71164062 2.90054687 17.86859375 2.94953125 17 3 C17 2.34 17 1.68 17 1 C11.39 1 5.78 1 0 1 C0 0.67 0 0.34 0 0 Z " fill="#1A191D" transform="translate(241,7)"/>
<path d="M0 0 C6.93 0 13.86 0 21 0 C20.67 0.66 20.34 1.32 20 2 C18.4840625 1.9690625 18.4840625 1.9690625 16.9375 1.9375 C12.08028488 2.01459865 7.61667027 2.46110991 3 4 C3 3.34 3 2.68 3 2 C2.01 1.67 1.02 1.34 0 1 C0 0.67 0 0.34 0 0 Z " fill="#1E1B21" transform="translate(97,455)"/>
<path d="M0 0 C2.13586678 3.20380017 2.23132175 4.01939967 2.125 7.6875 C2.10695313 8.49574219 2.08890625 9.30398437 2.0703125 10.13671875 C2.04710937 10.75160156 2.02390625 11.36648437 2 12 C1.34 12 0.68 12 0 12 C0 9.03 0 6.06 0 3 C-0.73605469 3.01160156 -1.47210938 3.02320312 -2.23046875 3.03515625 C-3.20628906 3.04417969 -4.18210937 3.05320312 -5.1875 3.0625 C-6.63189453 3.07990234 -6.63189453 3.07990234 -8.10546875 3.09765625 C-10.85576513 3.00486622 -13.32479591 2.62111685 -16 2 C-16 1.67 -16 1.34 -16 1 C-15.32453125 1.01160156 -14.6490625 1.02320312 -13.953125 1.03515625 C-13.06109375 1.04417969 -12.1690625 1.05320312 -11.25 1.0625 C-10.36828125 1.07410156 -9.4865625 1.08570312 -8.578125 1.09765625 C-5.61586765 0.98544953 -2.93496964 0 0 0 Z " fill="#807680" transform="translate(362,102)"/>
<path d="M0 0 C1.12588014 0.95729916 2.2506715 1.91587895 3.375 2.875 C4.00148438 3.40867187 4.62796875 3.94234375 5.2734375 4.4921875 C6.55836651 5.61432007 7.79371975 6.79371975 9 8 C9.04165365 9.66614608 9.04165365 11.33385392 9 13 C9.33 13.66 9.66 14.32 10 15 C9.01 14.67 8.02 14.34 7 14 C7 13.34 7 12.68 7 12 C6.34 12 5.68 12 5 12 C4.28385417 10.046875 3.56770833 8.09375 2.8515625 6.140625 C2.01000989 4.02516248 1.04673506 2.02065376 0 0 Z " fill="#383334" transform="translate(404,102)"/>
<path d="M0 0 C0.66 1.32 1.32 2.64 2 4 C-0.1875 6.5625 -0.1875 6.5625 -3 9 C-5.8125 8.8125 -5.8125 8.8125 -8 8 C-7.04578192 6.85073734 -6.08647955 5.70569459 -5.125 4.5625 C-4.59132813 3.92441406 -4.05765625 3.28632813 -3.5078125 2.62890625 C-2 1 -2 1 0 0 Z " fill="#5A595B" transform="translate(398,396)"/>
<path d="M0 0 C2.475 0.495 2.475 0.495 5 1 C5.33 2.32 5.66 3.64 6 5 C6.66 5 7.32 5 8 5 C8.12375 5.639375 8.2475 6.27875 8.375 6.9375 C8.58125 7.618125 8.7875 8.29875 9 9 C9.66 9.33 10.32 9.66 11 10 C10.67 10.66 10.34 11.32 10 12 C9.34 12 8.68 12 8 12 C6.7109375 10.5390625 6.7109375 10.5390625 5.375 8.625 C4.70597656 7.68527344 4.70597656 7.68527344 4.0234375 6.7265625 C3 5 3 5 3 3 C2.34 3 1.68 3 1 3 C0.67 2.01 0.34 1.02 0 0 Z " fill="#4D474A" transform="translate(414,118)"/>
<path d="M0 0 C5.35152885 0.32433508 8.28280043 3.49704824 12 7 C11.67 7.99 11.34 8.98 11 10 C8.96166576 8.7260411 6.96147874 7.38938077 5 6 C5 5.34 5 4.68 5 4 C4.34 4 3.68 4 3 4 C3 3.34 3 2.68 3 2 C2.01 1.67 1.02 1.34 0 1 C0 0.67 0 0.34 0 0 Z " fill="#524D4D" transform="translate(380,85)"/>
<path d="M0 0 C1.2065625 0.0309375 1.2065625 0.0309375 2.4375 0.0625 C2.1075 1.0525 1.7775 2.0425 1.4375 3.0625 C2.0975 3.0625 2.7575 3.0625 3.4375 3.0625 C3.7675 2.0725 4.0975 1.0825 4.4375 0.0625 C4.4375 0.7225 4.4375 1.3825 4.4375 2.0625 C5.7575 2.3925 7.0775 2.7225 8.4375 3.0625 C1.00892857 6.34821429 1.00892857 6.34821429 -2.5625 7.0625 C-2.8925 6.4025 -3.2225 5.7425 -3.5625 5.0625 C-2.2425 4.7325 -0.9225 4.4025 0.4375 4.0625 C0.4375 3.4025 0.4375 2.7425 0.4375 2.0625 C-0.8825 1.7325 -2.2025 1.4025 -3.5625 1.0625 C-2.5625 0.0625 -2.5625 0.0625 0 0 Z " fill="#757471" transform="translate(328.5625,474.9375)"/>
<path d="M0 0 C0.99 0.33 1.98 0.66 3 1 C2.69012383 3.25036286 2.37700182 5.50027894 2.0625 7.75 C1.88847656 9.00296875 1.71445312 10.2559375 1.53515625 11.546875 C1.13950662 14.09982593 0.69553578 16.5186291 0 19 C-0.33 19 -0.66 19 -1 19 C-0.67 12.73 -0.34 6.46 0 0 Z " fill="#A79AA4" transform="translate(496,267)"/>
<path d="M0 0 C0.33 0.66 0.66 1.32 1 2 C-2.42232972 3.14077657 -5.08673217 3.09815117 -8.6875 3.0625 C-10.45673828 3.04896484 -10.45673828 3.04896484 -12.26171875 3.03515625 C-13.16535156 3.02355469 -14.06898438 3.01195312 -15 3 C-14.67 2.34 -14.34 1.68 -14 1 C-12.109375 0.5859375 -12.109375 0.5859375 -9.75 0.375 C-8.94175781 0.30152344 -8.13351562 0.22804688 -7.30078125 0.15234375 C-4.86004606 -0.0092669 -2.445326 -0.07888148 0 0 Z " fill="#262525" transform="translate(290,486)"/>
<path d="M0 0 C2 1 2 1 3 3.5 C3.99883121 6.99590923 4.80267992 10.48740323 5.53515625 14.046875 C5.9366436 16.06326406 5.9366436 16.06326406 7 18 C6.34 18.66 5.68 19.32 5 20 C2.56569185 13.42736799 1.09890483 6.91663627 0 0 Z " fill="#9FA6AC" transform="translate(485,170)"/>
<path d="M0 0 C2.31 0.33 4.62 0.66 7 1 C4.23408664 3.76591336 1.81537701 3.4737411 -2 4 C-4.33588323 4.95584438 -4.33588323 4.95584438 -6 6 C-6.66 5.34 -7.32 4.68 -8 4 C-4.91190305 2.23537317 -3.76687864 2 0 2 C0 1.34 0 0.68 0 0 Z " fill="#28252D" transform="translate(289,450)"/>
<path d="M0 0 C0.99 0 1.98 0 3 0 C3.52902569 2.45683118 4.04850809 4.91502126 4.5625 7.375 C4.71396484 8.07367188 4.86542969 8.77234375 5.02148438 9.4921875 C6.11328125 14.7734375 6.11328125 14.7734375 5 17 C4 16 4 16 3.9375 12.9375 C3.958125 11.968125 3.97875 10.99875 4 10 C3.34 10 2.68 10 2 10 C1.855625 8.906875 1.71125 7.81375 1.5625 6.6875 C1.11711896 3.06877013 1.11711896 3.06877013 0 0 Z " fill="#898789" transform="translate(451,189)"/>
<path d="M0 0 C1.32 0.33 2.64 0.66 4 1 C4 1.66 4 2.32 4 3 C5.29233607 4.37310707 6.62437146 5.71034824 8 7 C4.36436591 7 2.87354245 6.17457267 0 4 C0 2.68 0 1.36 0 0 Z " fill="#595557" transform="translate(359,68)"/>
<path d="M0 0 C2.31 0 4.62 0 7 0 C7.33 1.32 7.66 2.64 8 4 C5.03 3.67 2.06 3.34 -1 3 C-0.67 2.01 -0.34 1.02 0 0 Z " fill="#171619" transform="translate(256,106)"/>
<path d="M0 0 C5.16427376 1.2394257 8.75436828 2.78988821 13 6 C13 6.33 13 6.66 13 7 C8.25 7.125 8.25 7.125 6 6 C6 5.34 6 4.68 6 4 C5.195625 3.71125 4.39125 3.4225 3.5625 3.125 C1 2 1 2 0 0 Z " fill="#534E51" transform="translate(367,76)"/>
<path d="M0 0 C-2.3024119 2.60045875 -4.49896677 3.84739183 -7.6875 5.1875 C-8.49574219 5.53167969 -9.30398438 5.87585938 -10.13671875 6.23046875 C-10.75160156 6.48441406 -11.36648438 6.73835938 -12 7 C-11.67 6.01 -11.34 5.02 -11 4 C-10.34 4 -9.68 4 -9 4 C-8.67 3.01 -8.34 2.02 -8 1 C-5.29120665 -0.35439668 -2.99066732 -0.06501451 0 0 Z " fill="#868578" transform="translate(365,465)"/>
<path d="M0 0 C4.29 0 8.58 0 13 0 C9.67405092 1.66297454 7.60680047 2.63931995 4 3 C1.6875 2.0625 1.6875 2.0625 0 1 C0 0.67 0 0.34 0 0 Z " fill="#2B2828" transform="translate(259,40)"/>
<path d="M0 0 C2.64 0.33 5.28 0.66 8 1 C5.11371599 2.57554035 2.46657616 3.46276373 -0.75 4.125 C-1.54921875 4.29257812 -2.3484375 4.46015625 -3.171875 4.6328125 C-3.77515625 4.75398438 -4.3784375 4.87515625 -5 5 C-5 4.34 -5 3.68 -5 3 C-3.35 2.67 -1.7 2.34 0 2 C0 1.34 0 0.68 0 0 Z " fill="#999695" transform="translate(302,484)"/>
<path d="M0 0 C0.66 0.33 1.32 0.66 2 1 C-0.13432142 4.20148213 -0.68419896 4.52206739 -4.125 5.6875 C-4.84945313 5.93886719 -5.57390625 6.19023437 -6.3203125 6.44921875 C-7.15175781 6.72185547 -7.15175781 6.72185547 -8 7 C-8 6.34 -8 5.68 -8 5 C-6.3203125 3.67578125 -6.3203125 3.67578125 -4.125 2.3125 C-3.40570313 1.85488281 -2.68640625 1.39726562 -1.9453125 0.92578125 C-1.30335938 0.62027344 -0.66140625 0.31476563 0 0 Z " fill="#717073" transform="translate(377,413)"/>
<path d="M0 0 C1.9375 0.125 1.9375 0.125 4 1 C5.75 3.0625 5.75 3.0625 7 5 C4.69 5 2.38 5 0 5 C0 4.34 0 3.68 0 3 C-0.66 2.67 -1.32 2.34 -2 2 C-1.34 1.34 -0.68 0.68 0 0 Z " fill="#413C3D" transform="translate(379,81)"/>
<path d="M0 0 C0 0.66 0 1.32 0 2 C-3.13498292 3.85776765 -5.37471432 4.20140476 -9 4 C-9.33 3.34 -9.66 2.68 -10 2 C-8.7090864 1.66376204 -7.41723903 1.33110751 -6.125 1 C-5.40570313 0.814375 -4.68640625 0.62875 -3.9453125 0.4375 C-2 0 -2 0 0 0 Z " fill="#2C2A27" transform="translate(329,477)"/>
<path d="M0 0 C0.33 0 0.66 0 1 0 C1 4.95 1 9.9 1 15 C0.01 15.33 -0.98 15.66 -2 16 C-1.34 10.72 -0.68 5.44 0 0 Z " fill="#201B1A" transform="translate(255,252)"/>
<path d="M0 0 C0.66 0.33 1.32 0.66 2 1 C1.01 2.485 1.01 2.485 0 4 C-0.63292383 6.11280345 -0.63292383 6.11280345 -1 8 C-1.33 7.34 -1.66 6.68 -2 6 C-2.99 6.33 -3.98 6.66 -5 7 C-5 6.34 -5 5.68 -5 5 C-4.34 5 -3.68 5 -3 5 C-2.5359375 4.0409375 -2.5359375 4.0409375 -2.0625 3.0625 C-1 1 -1 1 0 0 Z " fill="#434244" transform="translate(404,389)"/>
<path d="M0 0 C0.66 0.33 1.32 0.66 2 1 C1.67 2.32 1.34 3.64 1 5 C-0.65 5.33 -2.3 5.66 -4 6 C-4 4 -4 4 -2 1.875 C-1.34 1.25625 -0.68 0.6375 0 0 Z " fill="#2B292C" transform="translate(410,385)"/>
<path d="M0 0 C2.64 0 5.28 0 8 0 C6.875 1.5 6.875 1.5 5 3 C1.8125 3.1875 1.8125 3.1875 -1 3 C-0.67 2.01 -0.34 1.02 0 0 Z " fill="#1F1D1F" transform="translate(308,206)"/>
<path d="M0 0 C2.31 0.66 4.62 1.32 7 2 C6.67 4.31 6.34 6.62 6 9 C3.75972706 6.11964908 1.83827868 3.15133488 0 0 Z " fill="#645D5F" transform="translate(433,147)"/>
<path d="M0 0 C3.44216672 2.6598561 3.99504674 5.90288286 5 10 C3.5 8.625 3.5 8.625 2 7 C2 6.34 2 5.68 2 5 C1.34 5 0.68 5 0 5 C0 4.01 0 3.02 0 2 C-0.66 1.67 -1.32 1.34 -2 1 C-1.34 0.67 -0.68 0.34 0 0 Z " fill="#756F72" transform="translate(425,130)"/>
<path d="M0 0 C2.97 0 5.94 0 9 0 C9.33 0.99 9.66 1.98 10 3 C6.14354879 3.22036864 3.50776784 2.60355101 0 1 C0 0.67 0 0.34 0 0 Z " fill="#151417" transform="translate(85,106)"/>
<path d="M0 0 C2.92879371 0.62759865 5.36095629 1.58622659 8 3 C5.69 3.66 3.38 4.32 1 5 C0.67 3.35 0.34 1.7 0 0 Z " fill="#7E7270" transform="translate(310,481)"/>
<path d="M0 0 C0.66 0.33 1.32 0.66 2 1 C1.979375 1.78375 1.95875 2.5675 1.9375 3.375 C1.81315937 5.98114961 1.81315937 5.98114961 3 8 C2.01 7.67 1.02 7.34 0 7 C0 6.34 0 5.68 0 5 C-0.66 5 -1.32 5 -2 5 C-1.34 3.35 -0.68 1.7 0 0 Z " fill="#5A5557" transform="translate(411,109)"/>
<path d="M0 0 C2.64 0.33 5.28 0.66 8 1 C8 1.66 8 2.32 8 3 C6.35 3.33 4.7 3.66 3 4 C2.01 2.68 1.02 1.36 0 0 Z " fill="#171619" transform="translate(100,106)"/>
<path d="M0 0 C1.258125 -0.04125 2.51625 -0.0825 3.8125 -0.125 C4.52019531 -0.14820313 5.22789062 -0.17140625 5.95703125 -0.1953125 C8 0 8 0 11 2 C6.99799622 3.60080151 3.95443764 2.29279692 0 1 C0 0.67 0 0.34 0 0 Z " fill="#6C6768" transform="translate(280,44)"/>
<path d="M0 0 C2.31 0.33 4.62 0.66 7 1 C6.67 1.66 6.34 2.32 6 3 C4.68 3 3.36 3 2 3 C1.67 3.66 1.34 4.32 1 5 C0.34 4.67 -0.32 4.34 -1 4 C-0.67 2.68 -0.34 1.36 0 0 Z " fill="#7A7876" transform="translate(338,473)"/>
<path d="M0 0 C2.475 0.495 2.475 0.495 5 1 C5.33 2.98 5.66 4.96 6 7 C5.34 7 4.68 7 4 7 C3.67 5.68 3.34 4.36 3 3 C2.34 3 1.68 3 1 3 C0.67 2.01 0.34 1.02 0 0 Z " fill="#746E71" transform="translate(414,118)"/>
</svg>
